<?xml version="1.0" encoding="UTF-8" standalone="no"?>
<!-- Created with Inkscape (http://www.inkscape.org/) -->

<svg
   xmlns:dc="http://purl.org/dc/elements/1.1/"
   xmlns:cc="http://creativecommons.org/ns#"
   xmlns:rdf="http://www.w3.org/1999/02/22-rdf-syntax-ns#"
   xmlns:svg="http://www.w3.org/2000/svg"
   xmlns="http://www.w3.org/2000/svg"
   xmlns:sodipodi="http://sodipodi.sourceforge.net/DTD/sodipodi-0.dtd"
   xmlns:inkscape="http://www.inkscape.org/namespaces/inkscape"
   version="1.0"
   width="5.9355655"
   height="8.0013733"
   viewBox="0 0 5.9355653 8.0013732"
   id="Layer_1"
   xml:space="preserve"
   inkscape:version="0.48.4 r9939"
   sodipodi:docname="flower1.svg"><sodipodi:namedview
     pagecolor="#ffffff"
     bordercolor="#666666"
     borderopacity="1"
     objecttolerance="10"
     gridtolerance="10"
     guidetolerance="10"
     inkscape:pageopacity="0"
     inkscape:pageshadow="2"
     inkscape:window-width="1631"
     inkscape:window-height="1026"
     id="namedview257"
     showgrid="false"
     fit-margin-top="0"
     fit-margin-left="0"
     fit-margin-right="0"
     fit-margin-bottom="0"
     inkscape:zoom="64"
     inkscape:cx="2.7008816"
     inkscape:cy="4.4943758"
     inkscape:window-x="49"
     inkscape:window-y="24"
     inkscape:window-maximized="1"
     inkscape:current-layer="Layer_1" /><defs
     id="defs508" /><metadata
     id="metadata4"><rdf:RDF><cc:Work
         rdf:about=""><dc:title></dc:title><dc:description>Aster conspicuus - Showy Aster</dc:description><dc:subject><rdf:Bag><rdf:li>plant</rdf:li><rdf:li>flower</rdf:li><rdf:li>Aster</rdf:li><rdf:li>conspicuus</rdf:li></rdf:Bag></dc:subject><dc:publisher><cc:Agent
             rdf:about="http://www.openclipart.org/"><dc:title>Open Clip Art Project</dc:title></cc:Agent></dc:publisher><dc:creator><cc:Agent
             rdf:about=""><dc:title>Gerald G.</dc:title></cc:Agent></dc:creator><dc:rights><cc:Agent
             rdf:about="http://web.resource.org/cc/PublicDomain"><dc:title>Public Domain</dc:title></cc:Agent></dc:rights><dc:date>2006/10/03</dc:date><dc:format>image/svg+xml</dc:format><dc:type
           rdf:resource="http://purl.org/dc/dcmitype/StillImage">http://purl.org/dc/dcmitype/StillImage</dc:type><cc:license
           rdf:resource="http://web.resource.org/cc/PublicDomain" /></cc:Work><cc:License
         rdf:about="http://web.resource.org/cc/PublicDomain"><cc:permits
           rdf:resource="http://web.resource.org/cc/Reproduction" /><cc:permits
           rdf:resource="http://web.resource.org/cc/Distribution" /><cc:permits
           rdf:resource="http://web.resource.org/cc/DerivativeWorks" /></cc:License></rdf:RDF></metadata><g
     id="g5"
     transform="matrix(0.0141766,0,0,0.0141766,0.00221504,4.9927469e-4)"><path
       style="fill-rule:evenodd;stroke:#000000;stroke-width:0.036;stroke-miterlimit:10"
       d="m 197.588,560.082 c 1.45588,-20.00425 16.00652,-47.41656 14.69662,-60.80462 -21.54271,1.49544 -42.77238,-3.13315 -64.05023,-4.31315 C 124.55474,506.40061 104.50078,484.62356 80.8265,489.25938 55.365242,492.57496 18.606716,474.10649 2.8213115,472.39165 29.483812,459.15948 59.978068,461.68059 87.503937,453.32831 c 21.944863,-17.92721 54.131933,-11.16743 75.205973,4.73002 21.17669,6.417 41.90704,16.49026 53.05909,36.93167 17.05844,-21.03631 15.85468,-48.28635 9.41848,-72.93052 C 224.17862,395.8274 236.20373,371.29984 242.408,346.273 218.38379,339.22771 202.5322,317.01933 188.75056,297.45362 177.13749,277.26715 180.0417,252.21577 187.58,231.145 c -21.83273,-7.65085 -33.00048,-42.60081 -43.57301,-48.44391 24.12724,4.09019 45.98767,20.96817 68.85176,24.47466 16.10995,-7.74644 55.46139,10.5196 38.67908,-17.54775 -1.54192,-30.17969 -43.43133,-21.32892 -56.78283,-43.299 -15.15062,-29.41395 41.1801,9.08962 33.21408,1.116 -14.71455,-21.1679 -27.86105,-43.36885 -41.32308,-65.34 12.45051,-2.99184 19.42878,29.89598 28.56909,40.53727 9.32479,15.2649 30.06029,40.52747 36.25652,46.76104 10.26163,-16.97923 -0.47689,-46.90423 10.51565,-57.51076 4.59264,22.26482 -8.11143,46.74668 -7.61062,68.91095 5.60424,21.14018 13.1169,41.90448 14.60336,63.9135 3.03926,-32.23616 43.24686,-35.70478 63.25383,-54.93487 12.63243,-10.77419 45.85351,-29.45873 52.34606,-19.27133 -9.17126,37.34888 -46.4456,54.8718 -77.90789,70.4262 -14.33377,18.89785 -38.11085,0.58441 -47.98287,23.436 -11.70156,10.9791 -0.54179,41.6308 -1.34798,46.10255 18.60347,-22.0254 48.96465,-28.26052 76.11685,-20.97555 26.40351,3.90099 52.11502,15.61042 79.272,12.024 -21.64731,18.27483 -50.80925,26.37028 -78.68031,20.57723 -25.39108,-4.15804 -50.79482,13.02018 -75.54481,1.04724 -12.01369,10.95946 -14.00368,42.48429 -21.87338,61.07203 -3.01011,12.89325 -8.44147,44.2491 0.46551,45.81449 19.69414,-16.51458 42.10856,-12.50027 64.39299,-21.95199 27.54799,-4.14688 49.97657,13.31306 68.08503,31.60684 12.72717,12.23079 41.13907,23.5902 45.94798,33.09907 -28.00196,9.43783 -52.08921,-13.5691 -79.09027,-16.67569 -26.31304,-4.56401 -55.33093,-14.99725 -80.56972,-0.9558 -27.41385,-4.88781 -19.61357,25.60939 -34.40102,41.23258 -5.19955,16.95039 -19.81282,47.318 9.2903,32.74144 32.55014,-8.49837 66.92457,-2.1699 96.1537,13.77056 -29.96193,-7.93531 -58.1215,5.81735 -86.93564,9.44552 -16.51549,5.64044 -33.66665,-23.90225 -32.63386,0.72265 0.32368,6.17504 -4.64769,17.82163 -9.7485,7.01183 z M 217.532,214.05 c 18.73708,-5.85381 46.50922,-9.99501 43.677,17.1765 11.53214,10.43629 -10.33605,44.19081 -11.565,20.5515 -10.57852,-12.48072 -18.02841,-28.71603 -32.112,-37.728 z"
       id="path7"
       inkscape:connector-curvature="0" /><path
       style="fill:#61611f;fill-rule:evenodd;stroke:#000000;stroke-width:0.036;stroke-miterlimit:10"
       d="m 234.021,451.794 c -8.54924,-31.15638 33.5772,-29.46722 49.31942,-36.59458 26.00719,-12.44877 57.91749,-3.60292 76.15014,18.12924 17.0358,14.59987 36.21863,26.68238 55.82644,37.50834 -29.83218,9.65823 -55.88989,-15.43796 -84.73029,-18.65842 -26.29736,-4.78436 -55.05086,-11.8659 -79.93371,2.09642 -5.52673,2.81037 -11.81613,0.71668 -16.632,-2.481 z"
       id="path9"
       inkscape:connector-curvature="0" /><path
       style="fill-rule:evenodd;stroke:#000000;stroke-width:0.036;stroke-miterlimit:10"
       d="m 237.656,447.149 c 42.18397,-23.91296 96.76154,-19.11568 135.72,9.072 -32.44828,-18.91753 -71.64758,-29.92223 -108.58458,-18.10336 -9.24723,2.35292 -18.30505,5.42207 -27.13542,9.03136 z"
       id="path11"
       inkscape:connector-curvature="0" /><path
       style="fill:#61611f;fill-rule:evenodd;stroke:#000000;stroke-width:0.036;stroke-miterlimit:10"
       d="m 212.204,534.666 c 31.58643,-8.94875 66.19985,-12.27806 96.96261,1.68777 23.33611,8.64946 -22.48225,-0.75698 -31.4768,5.06292 -18.98211,6.64883 -58.06821,19.04394 -66.18756,-6.39119 l 0.70175,-0.3595 0,0 z"
       id="path13"
       inkscape:connector-curvature="0" /><path
       style="fill-rule:evenodd;stroke:#000000;stroke-width:0.036;stroke-miterlimit:10"
       d="m 218.685,537.905 c 25.69098,6.17331 50.77644,-12.21242 76.355,-2.592 -25.91859,-7.79668 -50.66678,11.06631 -76.355,2.592 l 0,0 z"
       id="path15"
       inkscape:connector-curvature="0" /><path
       style="fill:#61611f;fill-rule:evenodd;stroke:#000000;stroke-width:0.036;stroke-miterlimit:10"
       d="m 215.48,496.397 c -12.46257,-24.51604 -39.35178,-29.87691 -61.21181,-41.6828 -21.15562,-15.74937 -49.45496,-12.56158 -70.17919,1.6273 -22.706761,4.29197 -46.42531,4.12627 -68.359992,12.95016 -22.3821885,4.91851 15.989436,4.88278 23.841492,11.48948 22.682419,13.56818 50.209254,-2.10407 72.22001,11.69714 23.7629,7.66631 48.98627,-3.81315 73.53323,4.58457 9.36372,-0.91644 22.49299,3.27664 30.15626,-0.66585 z"
       id="path17"
       inkscape:connector-curvature="0" /><path
       style="fill-rule:evenodd;stroke:#000000;stroke-width:0.036;stroke-miterlimit:10"
       d="m 65.36,473.105 c 49.58991,-2.36544 98.86511,6.89301 145.98,21.78 -47.69777,-13.23743 -96.33609,-21.95006 -145.98,-21.78 z"
       id="path19"
       inkscape:connector-curvature="0" /><path
       style="fill:#61611f;fill-rule:evenodd;stroke:#000000;stroke-width:0.036;stroke-miterlimit:10"
       d="m 249.716,272.55 c 4.58348,-23.31403 -20.00228,-44.83294 -36.15256,-59.18006 -21.25076,-10.81169 -42.85756,-21.4344 -65.76244,-28.26394 17.20775,13.96104 21.61558,39.48528 45.62353,46.96671 24.69392,5.92174 37.33246,26.16751 56.29147,40.47729 z"
       id="path21"
       inkscape:connector-curvature="0" /><path
       style="fill-rule:evenodd;stroke:#000000;stroke-width:0.036;stroke-miterlimit:10"
       d="m 242.552,257.25 c -19.17972,-25.31361 -46.57183,-42.73662 -73.764,-58.32 26.70885,16.53564 53.19647,34.22205 73.764,58.32 z"
       id="path23"
       inkscape:connector-curvature="0" /><path
       style="fill:#61611f;fill-rule:evenodd;stroke:#000000;stroke-width:0.036;stroke-miterlimit:10"
       d="m 242.984,336.162 c 8.54408,-21.3519 10.80509,-52.62163 -4.63538,-70.173 -11.07762,-14.83049 -34.34195,-35.27633 -50.24514,-30.71081 -7.06465,23.09609 -9.13481,50.88232 8.88286,69.79253 13.28053,11.72648 28.45814,40.64727 46.36666,34.7579 l -0.369,-3.66662 0,0 z"
       id="path25"
       inkscape:connector-curvature="0" /><path
       style="fill-rule:evenodd;stroke:#000000;stroke-width:0.036;stroke-miterlimit:10"
       d="m 239.456,327.449 c -14.86385,-23.25804 -19.98508,-51.03506 -25.38,-77.687 2.36237,27.30027 9.06807,55.18734 25.38,77.687 z"
       id="path27"
       inkscape:connector-curvature="0" /><path
       style="fill:#61611f;fill-rule:evenodd;stroke:#000000;stroke-width:0.036;stroke-miterlimit:10"
       d="m 254.324,315.39 c 16.58417,-20.41368 45.7672,-30.47505 71.6445,-24.92587 27.82879,2.55812 54.03166,16.28451 82.3995,13.15387 -19.71929,15.04967 -45.04829,21.23994 -69.508,17.07233 -27.9384,-5.78891 -56.72127,13.23821 -83.33512,-0.67983 -0.52813,-1.47386 -2.00872,-2.91584 -1.20088,-4.6205 z"
       id="path29"
       inkscape:connector-curvature="0" /><path
       style="fill-rule:evenodd;stroke:#000000;stroke-width:0.036;stroke-miterlimit:10"
       d="m 268.688,317.478 c 23.58704,-13.83416 52.05041,-19.29334 78.52352,-10.75345 10.47355,1.90504 52.16875,4.51747 21.54129,2.84222 -24.89118,0.0564 -49.88994,-11.74662 -74.27007,-1.57618 -8.81832,2.5196 -17.39262,5.82679 -25.79474,9.48741 z"
       id="path31"
       inkscape:connector-curvature="0" /><path
       style="fill:#61611f;fill-rule:evenodd;stroke:#000000;stroke-width:0.036;stroke-miterlimit:10"
       d="m 302.024,210.918 c 23.11535,-10.66602 40.19527,-31.14014 64.81433,-38.3715 32.15962,-17.00091 3.66229,27.57201 -8.80114,36.18338 -20.32575,15.24033 -44.70323,24.5901 -64.80042,39.55387 -24.71672,11.86053 -29.03222,-15.7757 -9.78877,-26.96175 6.06553,-3.71215 12.70576,-6.29141 18.576,-10.404 z"
       id="path33"
       inkscape:connector-curvature="0" /><path
       style="fill-rule:evenodd;stroke:#000000;stroke-width:0.036;stroke-miterlimit:10"
       d="m 282.908,238.026 c 28.3334,-16.30097 56.62656,-33.26353 81.073,-55.152 -23.95302,22.61863 -51.15983,41.29496 -81.073,55.152 z"
       id="path35"
       inkscape:connector-curvature="0" /><path
       style="fill:#61611f;fill-rule:evenodd;stroke:#000000;stroke-width:0.036;stroke-miterlimit:10"
       d="m 244.424,165.702 c -11.01155,-11.77532 -42.68103,-37.28455 -50.247,-23.733 10.2936,17.29648 39.61724,23.02991 52.371,27.873 l -2.124,-4.14 z"
       id="path37"
       inkscape:connector-curvature="0" /><path
       style="fill-rule:evenodd;stroke:#000000;stroke-width:0.036;stroke-miterlimit:10"
       d="m 234.884,160.986 c -9.41505,-4.70312 -45.05196,-28.66966 -20.87325,-11.133 6.54163,4.43098 13.58697,8.09229 20.87325,11.133 z"
       id="path39"
       inkscape:connector-curvature="0" /><path
       style="fill:#61611f;fill-rule:evenodd;stroke:#000000;stroke-width:0.036;stroke-miterlimit:10"
       d="m 188.264,82.614 c 18.70267,27.00219 31.63763,58.93633 56.521,80.964 C 223.32612,141.7307 210.27485,114.07522 194.92057,88.061813 192.79758,87.198389 190.8943,76.650725 188.264,82.614 z"
       id="path41"
       inkscape:connector-curvature="0" /><path
       style="fill:#61611f;fill-rule:evenodd;stroke:#000000;stroke-width:0.036;stroke-miterlimit:10"
       d="m 258.176,209.946 c 6.24867,20.50707 12.39322,41.52587 -5.075,57.24 -4.75178,8.77208 13.45411,-12.00287 16.198,-17.748 -3.48204,-18.78357 -8.1592,-50.78879 -15.7865,-60.255 2.70814,12.96114 7.33767,21.07395 -10.33011,17.08763 -12.11025,-4.24671 -47.25447,7.98112 -18.27239,4.62937 10.92015,-2.48767 22.20475,-2.07233 33.266,-0.954 z"
       id="path43"
       inkscape:connector-curvature="0" /><path
       style="fill:#61611f;fill-rule:evenodd;stroke:#000000;stroke-width:0.036;stroke-miterlimit:10"
       d="m 247.269,272.118 c 4.15029,22.43585 4.9496,45.88543 -2.449,67.608 -4.90514,26.97165 -20.02188,53.01885 -18.47139,81.16806 5.32093,22.41583 9.20424,47.74212 -5.37511,67.80444 -10.76231,22.36593 -16.66673,46.84249 -22.1265,70.9875 12.14529,8.47121 8.64146,-28.83334 14.436,-37.224 0.82332,-25.63745 23.43275,-42.92259 22.356,-68.509 -7.05887,-21.42411 -5.27887,-47.53211 0.10267,-70.36761 4.3221,-22.21754 17.45869,-44.78897 17.10633,-66.64639 4.09808,-12.03736 1.5306,-38.962 -5.579,-44.821 z"
       id="path45"
       inkscape:connector-curvature="0" /><path
       style="fill-rule:evenodd;stroke:#000000;stroke-width:0.036;stroke-miterlimit:10"
       d="m 230.78,425.622 c 23.28642,-23.52142 -17.21985,-34.75339 -34.12427,-20.97179 -28.11061,8.88464 -50.62741,38.93721 -83.02367,30.53754 C 91.610715,432.83006 67.066788,423.2985 94.079,404.824 c 22.5834,-22.39189 57.53896,-32.10369 88.4546,-26.14222 20.20449,6.26806 37.2007,16.26757 56.96853,20.23286 10.99311,5.90729 -5.42076,43.3431 -8.72213,26.70736 z"
       id="path47"
       inkscape:connector-curvature="0" /><path
       style="fill:#61611f;fill-rule:evenodd;stroke:#000000;stroke-width:0.036;stroke-miterlimit:10"
       d="m 82.208,422.777 c 27.13801,-41.56259 89.39083,-59.16618 131.08141,-28.72254 -7.49968,7.55922 -40.05771,11.8625 -53.31591,26.85454 -22.5941,18.15565 -53.34715,13.25681 -77.7655,1.868 z"
       id="path49"
       inkscape:connector-curvature="0" /><path
       style="fill-rule:evenodd;stroke:#000000;stroke-width:0.036;stroke-miterlimit:10"
       d="m 105.644,423.821 c 26.49383,-14.45761 53.78925,-30.20381 85.04325,-29.64767 27.84292,-1.89438 -19.48512,2.63235 -28.23525,5.92467 -20.1023,4.58129 -38.74406,14.04925 -56.808,23.723 z"
       id="path51"
       inkscape:connector-curvature="0" /><path
       style="fill:#61611f;fill-rule:evenodd"
       d="m 217.388,395.237 c 27.1544,-10.51211 31.24433,31.56414 11.951,34.273 16.2625,-17.01708 11.62331,-31.42552 -11.951,-34.273 z"
       id="path53"
       inkscape:connector-curvature="0" /><path
       style="fill-rule:evenodd;stroke:#000000;stroke-width:0.036;stroke-miterlimit:10"
       d="m 176.744,222.906 c -13.27359,-3.36886 -43.46274,23.25542 -16.6635,13.221 3.56262,-4.84 33.70386,-7.15178 16.6635,-13.221 z"
       id="path55"
       inkscape:connector-curvature="0" /><path
       style="fill:#61611f;fill-rule:evenodd;stroke:#000000;stroke-width:0.036;stroke-miterlimit:10"
       d="m 149.888,234.714 c 5.72588,-6.93658 45.74282,-14.43689 21.33,-4.797 -5.88138,-0.87346 -19.69076,13.7715 -21.33,4.797 z"
       id="path57"
       inkscape:connector-curvature="0" /><path
       style="fill-rule:evenodd;stroke:#000000;stroke-width:0.036;stroke-miterlimit:10"
       d="m 145.136,215.67 c -2.46904,-25.46736 -17.61786,-51.90059 -40.932,-63.145 -7.796742,17.22145 17.11519,37.98277 26.01,53.937 11.40149,7.76416 -2.0215,23.04217 -6.85181,9.47644 C 103.9562,202.41045 82.558738,189.62323 60.32,182.261 c 5.875227,22.8572 32.533453,35.6259 53.28,44.424 20.6763,2.66639 14.18742,15.56806 -7.85981,16.45678 -14.669424,6.67781 -48.072356,19.57617 -44.42119,33.99047 25.208874,-2.67264 49.12618,-16.56721 67.437,-33.41925 6.34682,7.38212 0.45375,9.75153 -10.38512,16.13016 -18.21847,11.40806 -31.413665,29.46213 -43.86688,46.58084 17.383227,7.19352 39.37606,-22.34314 50.544,-37.368 4.34008,-16.94918 25.86297,-24.05896 10.82419,-2.85019 -3.84431,16.20352 -11.39858,39.35307 -7.58419,53.08331 17.54596,-15.69869 24.98818,-41.26286 20.232,-64.12912 13.79067,-10.03078 10.81135,22.67328 4.71262,34.39714 -11.20182,30.59815 24.67753,-4.43522 16.58588,-19.06114 2.94373,-14.1781 -22.29463,-36.87866 3.95775,-20.89519 9.06624,6.99986 41.99984,26.39289 21.90509,3.16631 -9.58221,-15.48216 -55.73386,-19.38182 -21.96612,-34.30518 10.69171,-8.42173 46.79091,-18.78664 39.28516,-30.36094 -24.00636,-3.97644 -46.37013,17.15133 -58.41438,27.54 -1.09167,2.4764 -7.15418,-2.61374 -9.45,0.029 z"
       id="path59"
       inkscape:connector-curvature="0" /><path
       style="fill:#daacec;fill-rule:evenodd;stroke:#000000;stroke-width:0.036;stroke-miterlimit:10"
       d="m 144.344,214.662 c -3.46507,-24.47469 -17.73874,-47.33816 -38.5875,-60.696 -4.81171,20.27805 22.39871,42.18756 32.5395,61.057 1.37675,-4.19768 3.58668,0.17025 6.048,-0.361 z"
       id="path61"
       inkscape:connector-curvature="0" /><path
       style="fill-rule:evenodd;stroke:#000000;stroke-width:0.036;stroke-miterlimit:10"
       d="m 109.064,164.406 c 6.92751,10.53465 26.01381,40.88075 26.30025,40.15406 C 127.10757,190.8478 118.07097,177.63039 109.064,164.406 z"
       id="path63"
       inkscape:connector-curvature="0" /><path
       style="fill-rule:evenodd;stroke:#000000;stroke-width:0.036;stroke-miterlimit:10"
       d="m 120.764,173.982 c 5.92913,7.30559 21.88294,40.94423 10.728,17.1 -3.34436,-5.84078 -6.88487,-11.57306 -10.728,-17.1 z"
       id="path65"
       inkscape:connector-curvature="0" /><path
       style="fill:#daacec;fill-rule:evenodd;stroke:#000000;stroke-width:0.036;stroke-miterlimit:10"
       d="m 128.288,223.878 c -16.9737,-19.72083 -43.182591,-28.08188 -65.34,-40.644 3.305159,20.43789 36.716866,37.45311 58.473,43.587 9.22846,2.22989 -1.58541,-2.6702 6.867,-2.943 z"
       id="path67"
       inkscape:connector-curvature="0" /><path
       style="fill-rule:evenodd;stroke:#000000;stroke-width:0.036;stroke-miterlimit:10"
       d="m 69.032,192.018 c 11.391265,11.34541 50.54542,31.26543 47.547,28.431 -16.885926,-7.71994 -32.525283,-17.56336 -47.547,-28.431 z"
       id="path69"
       inkscape:connector-curvature="0" /><path
       style="fill-rule:evenodd;stroke:#000000;stroke-width:0.036;stroke-miterlimit:10"
       d="m 92.144,204.294 c 10.73301,8.01159 41.23115,23.56957 13.16925,7.75575 -4.40574,-2.55809 -8.809514,-5.11964 -13.16925,-7.75575 z"
       id="path71"
       inkscape:connector-curvature="0" /><path
       style="fill-rule:evenodd;stroke:#000000;stroke-width:0.036;stroke-miterlimit:10"
       d="m 93.476,212.322 c 10.25452,6.28133 35.10455,14.73351 10.836,5.112 -3.66348,-1.59096 -7.302015,-3.24798 -10.836,-5.112 z"
       id="path73"
       inkscape:connector-curvature="0" /><path
       style="fill:#daacec;fill-rule:evenodd;stroke:#000000;stroke-width:0.036;stroke-miterlimit:10"
       d="m 126.992,239.754 c -25.49617,2.68386 -50.541775,15.89117 -67.7475,34.497 23.558624,3.44649 47.5705,-14.82812 66.14775,-28.728 4.97632,-1.84093 1.43749,-3.04816 1.59975,-5.769 z"
       id="path75"
       inkscape:connector-curvature="0" /><path
       style="fill-rule:evenodd;stroke:#000000;stroke-width:0.036;stroke-miterlimit:10"
       d="m 70.292,267.33 c 11.580112,-6.44122 55.55497,-28.4956 48.501,-23.67225 -16.71986,6.71862 -32.138548,16.22136 -48.501,23.67225 z"
       id="path77"
       inkscape:connector-curvature="0" /><path
       style="fill-rule:evenodd;stroke:#000000;stroke-width:0.036;stroke-miterlimit:10"
       d="m 90.74,259.878 c 10.1756,-5.45209 45.86376,-23.60736 18.576,-8.676 -6.10454,3.07485 -12.308197,5.95036 -18.576,8.676 z"
       id="path79"
       inkscape:connector-curvature="0" /><path
       style="fill-rule:evenodd;stroke:#000000;stroke-width:0.036;stroke-miterlimit:10"
       d="m 99.452,258.438 c 10.00983,-4.90288 29.78309,-16.33615 8.93025,-3.6855 -2.9033,1.39886 -5.90729,2.57483 -8.93025,3.6855 z"
       id="path81"
       inkscape:connector-curvature="0" /><path
       style="fill:#daacec;fill-rule:evenodd;stroke:#000000;stroke-width:0.036;stroke-miterlimit:10"
       d="m 133.616,251.274 c -23.48836,13.33888 -43.142431,33.0983 -57.7305,55.65013 20.88421,-0.77024 37.83888,-25.43933 50.40675,-42.21313 1.44733,-3.15569 9.56368,-12.27275 7.32375,-13.437 z"
       id="path83"
       inkscape:connector-curvature="0" /><path
       style="fill-rule:evenodd;stroke:#000000;stroke-width:0.036;stroke-miterlimit:10"
       d="m 91.712,292.565 c 8.048722,-9.69577 26.74313,-27.10252 30.591,-30.158 -10.2352,10.0132 -20.52873,19.9687 -30.591,30.158 z"
       id="path85"
       inkscape:connector-curvature="0" /><path
       style="fill-rule:evenodd;stroke:#000000;stroke-width:0.036;stroke-miterlimit:10"
       d="m 91.028,296.958 c 8.820565,-7.875 31.75261,-30.88138 32.148,-31.734 -9.41155,11.80351 -21.12202,21.50575 -32.148,31.734 z"
       id="path87"
       inkscape:connector-curvature="0" /><path
       style="fill:#daacec;fill-rule:evenodd;stroke:#000000;stroke-width:0.036;stroke-miterlimit:10"
       d="m 144.02,253.506 c 11.84848,17.74483 0.86068,50.29389 -16.344,63.936 1.91498,-21.52709 4.45575,-45.18566 16.344,-63.936 z"
       id="path89"
       inkscape:connector-curvature="0" /><path
       style="fill-rule:evenodd;stroke:#000000;stroke-width:0.036;stroke-miterlimit:10"
       d="m 145.064,264.558 c 0.30669,14.11786 -8.32885,36.51799 -12.2085,43.87438 7.89426,-13.23073 11.73982,-28.53519 12.2085,-43.87438 z"
       id="path91"
       inkscape:connector-curvature="0" /><path
       style="fill-rule:evenodd;stroke:#000000;stroke-width:0.036;stroke-miterlimit:10"
       d="m 141.968,271.074 c -0.66249,11.43731 -13.17226,44.12964 -3.636,15.696 1.41067,-5.18527 2.28663,-10.49771 3.636,-15.696 z"
       id="path93"
       inkscape:connector-curvature="0" /><path
       style="fill:#daacec;fill-rule:evenodd;stroke:#000000;stroke-width:0.036;stroke-miterlimit:10"
       d="m 157.592,252.066 c 12.94299,-8.8472 16.43371,34.34757 2.412,44.0415 -19.64086,15.9416 6.02205,-24.66871 -1.368,-34.2835 l -0.522,-5.36575 -0.522,-4.39225 0,0 z"
       id="path95"
       inkscape:connector-curvature="0" /><path
       style="fill-rule:evenodd;stroke:#000000;stroke-width:0.036;stroke-miterlimit:10"
       d="m 155.468,297.75 c 10.12116,-10.39459 13.02443,-33.14757 7.353,-41.453 6.29168,15.00747 0.0441,28.43322 -7.353,41.453 z"
       id="path97"
       inkscape:connector-curvature="0" /><path
       style="fill-rule:evenodd;stroke:#000000;stroke-width:0.036;stroke-miterlimit:10"
       d="m 161.66,261.858 c 1.9533,8.34004 1.69989,15.79162 0.27,2.853 l -0.27,-2.853 z"
       id="path99"
       inkscape:connector-curvature="0" /><path
       style="fill:#daacec;fill-rule:evenodd;stroke:#000000;stroke-width:0.036;stroke-miterlimit:10"
       d="m 161.336,234.318 c 13.48622,-0.76945 45.4544,23.39269 36.972,29.124 -12.48586,-10.65959 -39.50587,-17.31207 -36.972,-29.124 z"
       id="path101"
       inkscape:connector-curvature="0" /><path
       style="fill-rule:evenodd;stroke:#000000;stroke-width:0.036;stroke-miterlimit:10"
       d="m 168.968,238.962 c 11.37103,0.25507 35.8658,25.76525 15.40125,7.86825 -4.68362,-3.39753 -9.80262,-6.29336 -15.40125,-7.86825 z"
       id="path103"
       inkscape:connector-curvature="0" /><path
       style="fill-rule:evenodd;stroke:#000000;stroke-width:0.036;stroke-miterlimit:10"
       d="m 174.08,243.03 c 8.71782,3.61232 25.48113,17.83598 8.532,5.22 l -4.347,-2.799 -4.185,-2.421 z"
       id="path105"
       inkscape:connector-curvature="0" /><path
       style="fill:#daacec;fill-rule:evenodd;stroke:#000000;stroke-width:0.036;stroke-miterlimit:10"
       d="m 158.024,218.946 c 9.82851,-21.24368 34.88637,-31.24297 57.24,-29.556 -11.6373,13.72681 -40.24304,29.61666 -55.188,31.68 -4.06761,3.14266 0.22141,-1.62303 -2.052,-2.124 z"
       id="path107"
       inkscape:connector-curvature="0" /><path
       style="fill-rule:evenodd;stroke:#000000;stroke-width:0.036;stroke-miterlimit:10"
       d="m 164.252,216.066 c 7.35894,-9.79869 34.20251,-23.85522 38.13356,-22.23 -14.49737,3.80771 -26.95176,12.55162 -38.13356,22.23 z"
       id="path109"
       inkscape:connector-curvature="0" /><path
       style="fill-rule:evenodd;stroke:#000000;stroke-width:0.036;stroke-miterlimit:10"
       d="m 179.264,207.858 c 9.27112,-7.38069 35.60615,-16.42614 11.268,-6.12 -3.88956,1.78387 -7.59911,3.92631 -11.268,6.12 z"
       id="path111"
       inkscape:connector-curvature="0" /><path
       style="fill-rule:evenodd;stroke:#000000;stroke-width:0.036;stroke-miterlimit:10"
       d="m 174.08,204.078 c 7.22739,-8.83362 42.17677,-16.79593 15.516,-8.496 -5.48334,2.19312 -10.55011,5.33477 -15.516,8.496 z"
       id="path113"
       inkscape:connector-curvature="0" /><path
       style="fill:#c58b2a;fill-rule:evenodd;stroke:#000000;stroke-width:0.036;stroke-miterlimit:10"
       d="m 128.432,226.038 c -7.82998,3.81938 1.97096,10.61857 0.756,20.016 7.6207,5.95588 19.62584,9.96482 27.18,6.192 5.92186,-5.70277 6.88479,-24.63103 1.188,-28.8 0.83523,-10.62122 -17.03449,-8.59989 -22.383,-6.039 -4.71081,1.85853 -3.25684,4.11218 -6.741,8.631 z"
       id="path115"
       inkscape:connector-curvature="0" /><path
       style="fill-rule:evenodd;stroke:#000000;stroke-width:0.036;stroke-miterlimit:10"
       d="m 141.644,224.094 c -11.88836,-9.52293 -3.5867,7.40252 -4.932,3.888 -2.51268,3.51848 -5.53333,15.26878 4.032,10.152 -1.9671,15.01796 16.56573,2.21482 14.292,-6.912 -4.13796,-4.05675 -6.45464,-11.93608 -13.392,-7.128 z"
       id="path117"
       inkscape:connector-curvature="0" /><path
       style="fill:#ddaa13;fill-rule:evenodd;stroke:#000000;stroke-width:0.036;stroke-miterlimit:10"
       d="m 141.5,225.066 c -14.67267,-9.80572 4.55959,8.45203 -4.14,3.528 -6.1321,4.53062 4.69556,3.97436 -2.925,10.305 11.13159,-7.76209 2.18621,12.70144 11.457,1.935 8.48629,7.2648 9.74239,-12.46602 7.56,-11.052 -8.39594,3.98156 2.87674,-11.51996 -7.668,-3.204 2.59118,-5.098 -2.25908,-5.30257 -4.284,-1.512 z"
       id="path119"
       inkscape:connector-curvature="0" /><path
       style="fill-rule:evenodd;stroke:#000000;stroke-width:0.036;stroke-miterlimit:10"
       d="m 140.132,219.594 c 1.49654,-5.81815 5.94033,4.21556 0.576,-1.548 l -0.576,1.548 0,0 z"
       id="path121"
       inkscape:connector-curvature="0" /><path
       style="fill-rule:evenodd;stroke:#000000;stroke-width:0.036;stroke-miterlimit:10"
       d="m 146.18,219.846 c 1.43025,-3.76369 5.51853,-2.32856 0,0 z"
       id="path123"
       inkscape:connector-curvature="0" /><path
       style="fill-rule:evenodd;stroke:#000000;stroke-width:0.036;stroke-miterlimit:10"
       d="m 150.104,220.962 c 5.12993,-4.84856 6.46579,-1.21093 0,0 z"
       id="path125"
       inkscape:connector-curvature="0" /><path
       style="fill-rule:evenodd;stroke:#000000;stroke-width:0.036;stroke-miterlimit:10"
       d="m 151.364,223.014 c 4.15251,-2.39338 5.27953,0.25877 0,0 z"
       id="path127"
       inkscape:connector-curvature="0" /><path
       style="fill-rule:evenodd;stroke:#000000;stroke-width:0.036;stroke-miterlimit:10"
       d="m 153.74,226.398 c 4.22593,-2.75866 6.64585,-0.96521 0,0 z"
       id="path129"
       inkscape:connector-curvature="0" /><path
       style="fill-rule:evenodd;stroke:#000000;stroke-width:0.036;stroke-miterlimit:10"
       d="m 154.856,235.074 c 7.34353,0.75309 6.58218,0.944 0,0 z"
       id="path131"
       inkscape:connector-curvature="0" /><path
       style="fill-rule:evenodd;stroke:#000000;stroke-width:0.036;stroke-miterlimit:10"
       d="m 155.288,233.994 c 3.73805,-3.97169 2.84696,-5.95617 0,0 z"
       id="path133"
       inkscape:connector-curvature="0" /><path
       style="fill-rule:evenodd;stroke:#000000;stroke-width:0.036;stroke-miterlimit:10"
       d="m 142.328,226.074 c 6.71891,-3.00855 1.66966,11.33663 0,0 z"
       id="path135"
       inkscape:connector-curvature="0" /><path
       style="fill-rule:evenodd;stroke:#000000;stroke-width:0.036;stroke-miterlimit:10"
       d="m 141.968,229.494 c -6.37421,1.66172 -3.57901,2.5833 0,0 z"
       id="path137"
       inkscape:connector-curvature="0" /><path
       style="fill-rule:evenodd;stroke:#000000;stroke-width:0.036;stroke-miterlimit:10"
       d="m 142.148,231.87 c -4.45691,3.58262 5.59208,5.66088 0,0 z"
       id="path139"
       inkscape:connector-curvature="0" /><path
       style="fill-rule:evenodd;stroke:#000000;stroke-width:0.036;stroke-miterlimit:10"
       d="m 147.332,237.126 c 0.12755,4.4283 8.78816,-0.37165 0,0 z"
       id="path141"
       inkscape:connector-curvature="0" /><path
       style="fill-rule:evenodd;stroke:#000000;stroke-width:0.036;stroke-miterlimit:10"
       d="m 147.008,233.994 c 0.70645,-5.72558 2.97189,-10.19098 0,0 z"
       id="path143"
       inkscape:connector-curvature="0" /><path
       style="fill-rule:evenodd;stroke:#000000;stroke-width:0.036;stroke-miterlimit:10"
       d="m 143.732,238.134 c -2.4101,4.4863 1.47015,4.87671 0,0 z"
       id="path145"
       inkscape:connector-curvature="0" /><path
       style="fill-rule:evenodd;stroke:#000000;stroke-width:0.036;stroke-miterlimit:10"
       d="m 138.944,235.29 c -3.20382,2.55888 0.60143,2.79018 0,0 z"
       id="path147"
       inkscape:connector-curvature="0" /><path
       style="fill-rule:evenodd;stroke:#000000;stroke-width:0.036;stroke-miterlimit:10"
       d="m 134.372,227.37 c -8.0944,-1.08622 -9.59737,3.29423 0,0 z"
       id="path149"
       inkscape:connector-curvature="0" /><path
       style="fill-rule:evenodd;stroke:#000000;stroke-width:0.036;stroke-miterlimit:10"
       d="m 131.24,230.142 c 1.00759,5.25728 -5.593,5.66601 0,0 z"
       id="path151"
       inkscape:connector-curvature="0" /><path
       style="fill-rule:evenodd;stroke:#000000;stroke-width:0.036;stroke-miterlimit:10"
       d="m 131.744,235.83 c -4.10849,3.4518 -1.26397,10.76371 0,0 z"
       id="path153"
       inkscape:connector-curvature="0" /><path
       style="fill-rule:evenodd;stroke:#000000;stroke-width:0.036;stroke-miterlimit:10"
       d="m 134.804,241.302 c -2.45115,5.45537 6.99304,9.91257 -1.08,1.179 l 1.08,-1.179 z"
       id="path155"
       inkscape:connector-curvature="0" /><path
       style="fill-rule:evenodd;stroke:#000000;stroke-width:0.036;stroke-miterlimit:10"
       d="m 136.208,245.046 c 3.93588,1.6408 4.24498,-4.50212 0,0 z"
       id="path157"
       inkscape:connector-curvature="0" /><path
       style="fill-rule:evenodd;stroke:#000000;stroke-width:0.036;stroke-miterlimit:10"
       d="m 139.304,247.062 c 3.28501,4.81971 4.89096,3.04583 0,0 z"
       id="path159"
       inkscape:connector-curvature="0" /><path
       style="fill-rule:evenodd;stroke:#000000;stroke-width:0.036;stroke-miterlimit:10"
       d="m 146.684,244.902 c -0.58053,7.23934 9.53799,3.07406 -0.30439,3.74861 -0.35694,-1.29586 -0.0568,-2.50764 0.30439,-3.74861 z"
       id="path161"
       inkscape:connector-curvature="0" /><path
       style="fill-rule:evenodd;stroke:#000000;stroke-width:0.036;stroke-miterlimit:10"
       d="m 152.192,244.866 c 0.43587,4.27401 8.14124,1.377 0,0 z"
       id="path163"
       inkscape:connector-curvature="0" /><path
       style="fill-rule:evenodd;stroke:#000000;stroke-width:0.036;stroke-miterlimit:10"
       d="m 152.732,241.95 c 7.50732,2.63343 7.1752,-2.93969 0,0 z"
       id="path165"
       inkscape:connector-curvature="0" /><path
       style="fill-rule:evenodd;stroke:#000000;stroke-width:0.036;stroke-miterlimit:10"
       d="m 153.596,239.142 c 5.03416,-0.41863 1.30384,-4.59292 0,0 z"
       id="path167"
       inkscape:connector-curvature="0" /><path
       style="fill-rule:evenodd;stroke:#000000;stroke-width:0.036;stroke-miterlimit:10"
       d="m 152.768,249.114 c 3.08823,3.46911 8.20208,-2.44635 0,0 z"
       id="path169"
       inkscape:connector-curvature="0" /><path
       style="fill:#61611f;fill-rule:evenodd"
       d="m 257.42,114.402 c 12.00585,9.42406 -3.36409,45.02251 -4.87874,62.65758 3.44104,14.33637 1.38654,19.58063 -1.87392,3.76889 -5.37367,-16.82688 -4.03989,-10.24861 0.92066,-8.95247 4.53465,-18.69868 10.0606,-38.15779 5.832,-57.474 z"
       id="path171"
       inkscape:connector-curvature="0" /><path
       style="fill-rule:evenodd;stroke:#000000;stroke-width:0.036;stroke-miterlimit:10"
       d="m 282.44,180.354 c -15.49837,-8.3994 -33.4262,36.22302 -14.904,11.988 3.65133,-9.60004 19.94234,0.64515 14.904,-11.988 z"
       id="path173"
       inkscape:connector-curvature="0" /><path
       style="fill-rule:evenodd;stroke:#000000;stroke-width:0.036;stroke-miterlimit:10"
       d="m 322.652,179.31 c -10.4542,-8.1119 -16.79739,-30.83827 -17.95088,-36.8595 15.66998,23.4739 -14.59898,-30.9081 4.96351,-8.0775 6.33054,2.846 9.46179,24.24151 9.08137,4.266 -2.43304,-12.42879 3.92403,-16.64763 5.57963,-5.328 6.78794,6.08896 0.56529,15.23166 7.25437,1.503 12.56204,-12.0532 12.10125,10.38397 12.40188,16.04237 -6.58564,16.59224 -1.55215,1.91996 5.95712,-1.71537 -5.87076,9.0364 -13.92593,30.95165 -27.287,30.169 z"
       id="path175"
       inkscape:connector-curvature="0" /><path
       style="fill:#daacec;fill-rule:evenodd;stroke:#000000;stroke-width:0.036;stroke-miterlimit:10"
       d="m 323.948,178.266 c 6.44654,-12.62097 -20.78048,-34.46882 -10.0925,-10.845 2.49347,3.1093 5.02976,12.22486 10.0925,10.845 z"
       id="path177"
       inkscape:connector-curvature="0" /><path
       style="fill:#daacec;fill-rule:evenodd;stroke:#000000;stroke-width:0.036;stroke-miterlimit:10"
       d="m 313.364,155.514 c -5.36824,-8.44759 -18.05946,-41.655 -1.657,-17.424 5.33635,11.36975 19.82096,45.2897 5.149,18.54 -0.71228,-1.16661 -2.26308,-1.64962 -3.492,-1.116 z"
       id="path179"
       inkscape:connector-curvature="0" /><path
       style="fill:#daacec;fill-rule:evenodd;stroke:#000000;stroke-width:0.036;stroke-miterlimit:10"
       d="m 310.7,150.618 c 5.52214,17.81492 -17.39333,-24.4766 0,0 l 0,0 z"
       id="path181"
       inkscape:connector-curvature="0" /><path
       style="fill:#daacec;fill-rule:evenodd;stroke:#000000;stroke-width:0.036;stroke-miterlimit:10"
       d="m 317.396,150.654 c -2.79415,-18.75518 -7.64243,-15.62748 0,0 z"
       id="path183"
       inkscape:connector-curvature="0" /><path
       style="fill:#daacec;fill-rule:evenodd;stroke:#000000;stroke-width:0.036;stroke-miterlimit:10"
       d="m 323.517,164.082 c 6.31721,-9.71385 4.02618,-47.30041 -4.851,-18.1845 -3.1291,6.73839 3.73488,11.77533 4.851,18.1845 z"
       id="path185"
       inkscape:connector-curvature="0" /><path
       style="fill:#daacec;fill-rule:evenodd;stroke:#000000;stroke-width:0.036;stroke-miterlimit:10"
       d="m 323.264,134.382 c -3.04354,-26.26286 -8.16063,23.00358 0,0 l 0,0 z"
       id="path187"
       inkscape:connector-curvature="0" /><path
       style="fill:#daacec;fill-rule:evenodd;stroke:#000000;stroke-width:0.036;stroke-miterlimit:10"
       d="m 324.488,172.038 c 0.81131,-15.19403 23.39324,-19.78409 10.368,-2.412 -2.4516,3.82677 -11.72645,13.75644 -10.368,2.412 z"
       id="path189"
       inkscape:connector-curvature="0" /><path
       style="fill:#daacec;fill-rule:evenodd;stroke:#000000;stroke-width:0.036;stroke-miterlimit:10"
       d="m 324.74,177.618 c 9.0445,1.27303 29.03898,-40.40656 20.626,-21.744 -2.22041,6.96911 -17.80876,28.62759 -20.626,21.744 z"
       id="path191"
       inkscape:connector-curvature="0" /><path
       style="fill:#daacec;fill-rule:evenodd;stroke:#000000;stroke-width:0.036;stroke-miterlimit:10"
       d="m 340.185,160.77 c 3.89789,-6.62969 6.12719,-24.21491 -0.721,-9.288 -5.66321,2.19431 1.13821,8.61626 0.721,9.288 z"
       id="path193"
       inkscape:connector-curvature="0" /><path
       style="fill:#daacec;fill-rule:evenodd;stroke:#000000;stroke-width:0.036;stroke-miterlimit:10"
       d="m 337.196,156.342 c 8.14361,-23.16258 -12.94951,-5.61071 -9.323,8.28 2.18019,-3.32987 4.41353,-8.71104 9.323,-8.28 z"
       id="path195"
       inkscape:connector-curvature="0" /><path
       style="fill:#daacec;fill-rule:evenodd;stroke:#000000;stroke-width:0.036;stroke-miterlimit:10"
       d="m 323.696,164.478 c -1.83221,-11.31927 16.41377,-46.52667 9,-18.36 -3.38498,1.38539 -8.26725,39.35725 -9,18.36 z"
       id="path197"
       inkscape:connector-curvature="0" /><path
       style="fill:#daacec;fill-rule:evenodd;stroke:#000000;stroke-width:0.036;stroke-miterlimit:10"
       d="m 336.836,142.878 c 10.03997,-10.29028 5.22657,10.84255 0,0 z"
       id="path199"
       inkscape:connector-curvature="0" /><path
       style="fill:#daacec;fill-rule:evenodd;stroke:#000000;stroke-width:0.036;stroke-miterlimit:10"
       d="m 336.296,142.95 c 14.63056,-11.17426 -4.33811,-20.12131 0,0 z"
       id="path201"
       inkscape:connector-curvature="0" /><path
       style="fill-rule:evenodd;stroke:#000000;stroke-width:0.036;stroke-miterlimit:10"
       d="m 313.004,159.762 c 7.3701,17.24255 10.62861,20.9511 0,0 z"
       id="path203"
       inkscape:connector-curvature="0" /><path
       style="fill-rule:evenodd;stroke:#000000;stroke-width:0.036;stroke-miterlimit:10"
       d="m 317.324,164.766 c 5.28651,11.55575 5.0934,8.82858 0,0 z"
       id="path205"
       inkscape:connector-curvature="0" /><path
       style="fill-rule:evenodd;stroke:#000000;stroke-width:0.036;stroke-miterlimit:10"
       d="m 326.756,171.678 c 8.65957,-9.26339 12.3803,-16.03376 2.087,-2.376 l -2.087,2.376 z"
       id="path207"
       inkscape:connector-curvature="0" /><path
       style="fill-rule:evenodd;stroke:#000000;stroke-width:0.036;stroke-miterlimit:10"
       d="m 327.729,172.146 c 8.66403,-8.77194 10.87719,-9.09378 0,0 z"
       id="path209"
       inkscape:connector-curvature="0" /><path
       style="fill-rule:evenodd;stroke:#000000;stroke-width:0.036;stroke-miterlimit:10"
       d="m 331.148,157.53 c 3.83823,-11.47778 6.88486,-17.33302 0,0 z"
       id="path211"
       inkscape:connector-curvature="0" /><path
       style="fill-rule:evenodd;stroke:#000000;stroke-width:0.036;stroke-miterlimit:10"
       d="m 333.813,154.902 c 2.82089,-8.96041 3.75528,-8.8914 0,0 z"
       id="path213"
       inkscape:connector-curvature="0" /><path
       style="fill-rule:evenodd;stroke:#000000;stroke-width:0.036;stroke-miterlimit:10"
       d="m 340.688,149.178 c 3.91574,-3.40103 4.6228,-2.84614 0,0 z"
       id="path215"
       inkscape:connector-curvature="0" /><path
       style="fill-rule:evenodd;stroke:#000000;stroke-width:0.036;stroke-miterlimit:10"
       d="m 316.244,153.606 c -1.57479,-10.38109 -18.49421,-33.57466 -5.309,-12.861 2.03471,4.17267 3.64946,8.53146 5.309,12.861 z"
       id="path217"
       inkscape:connector-curvature="0" /><path
       style="fill-rule:evenodd;stroke:#000000;stroke-width:0.036;stroke-miterlimit:10"
       d="m 313.688,151.122 c -3.07673,-10.24963 -8.38637,-18.03194 -1.37663,-3.573 l 1.37663,3.573 z"
       id="path219"
       inkscape:connector-curvature="0" /><path
       style="fill-rule:evenodd;stroke:#000000;stroke-width:0.036;stroke-miterlimit:10"
       d="m 324.632,137.586 c -3.89686,9.10981 -6.22637,22.12823 -1.872,5.256 l 1.872,-5.256 0,0 z"
       id="path221"
       inkscape:connector-curvature="0" /><path
       style="fill-rule:evenodd;stroke:#000000;stroke-width:0.036;stroke-miterlimit:10"
       d="m 321.356,155.226 c 1.60742,-9.43586 4.1284,-14.80096 0,0 z"
       id="path223"
       inkscape:connector-curvature="0" /><path
       style="fill-rule:evenodd;stroke:#000000;stroke-width:0.036;stroke-miterlimit:10"
       d="m 326.036,159.834 c 0.99033,-12.83334 11.3769,-35.39003 2.267,-10.764 -1.02644,3.52268 -1.91901,7.09859 -2.267,10.764 z"
       id="path225"
       inkscape:connector-curvature="0" /><path
       style="fill-rule:evenodd;stroke:#000000;stroke-width:0.036;stroke-miterlimit:10"
       d="m 328.952,150.834 c 3.5088,-12.61671 5.97409,-16.15291 0,0 z"
       id="path227"
       inkscape:connector-curvature="0" /><path
       style="fill-rule:evenodd;stroke:#000000;stroke-width:0.036;stroke-miterlimit:10"
       d="m 336.692,138.306 c 3.41904,-9.47656 3.29627,-7.23886 0,0 z"
       id="path229"
       inkscape:connector-curvature="0" /><path
       style="fill-rule:evenodd;stroke:#000000;stroke-width:0.036;stroke-miterlimit:10"
       d="m 322.185,134.022 c -1.40068,-10.20934 -1.60275,-7.83887 0,0 z"
       id="path231"
       inkscape:connector-curvature="0" /><path
       style="fill-rule:evenodd;stroke:#000000;stroke-width:0.036;stroke-miterlimit:10"
       d="m 320.996,135.246 c -0.0865,-8.7294 -0.64358,-5.48908 0,0 z"
       id="path233"
       inkscape:connector-curvature="0" /><path
       style="fill-rule:evenodd;stroke:#000000;stroke-width:0.036;stroke-miterlimit:10"
       d="m 303.86,187.086 c 7.82451,0.22171 32.36281,-4.49345 24.084,-8.532 -11.97969,3.51384 -12.98518,-19.93523 -21.5325,-0.684 -4.67528,10.43284 -36.85076,-2.96519 -20.363,8.649 5.98642,-0.98482 12.25893,4.59731 17.8115,0.567 z"
       id="path235"
       inkscape:connector-curvature="0" /><path
       style="fill:#61611f;fill-rule:evenodd"
       d="m 280.244,180.786 c 13.52337,6.2023 29.22345,-0.3403 33.984,-10.008 -9.58864,11.78062 9.31209,-5.06753 -3.851,8.136 -3.2663,0.69964 18.17704,-6.45368 1.153,2.736 13.70824,-5.57952 4.61963,1.76752 17.098,-2.232 -11.1892,10.38427 -37.57529,9.32128 -48.602,3.456 l 0.218,-2.088 0,0 z"
       id="path237"
       inkscape:connector-curvature="0" /><path
       style="fill:#61611f;fill-rule:evenodd"
       d="m 281.324,180.714 c -15.36608,-3.74375 -33.67902,38.62537 -15.407,12.186 2.25233,-11.62068 20.4173,-0.61566 15.407,-12.186 z"
       id="path239"
       inkscape:connector-curvature="0" /><path
       style="fill-rule:evenodd;stroke:#000000;stroke-width:0.036;stroke-miterlimit:10"
       d="M 167.384,75.054 C 147.2206,58.593221 119.76569,48.868887 93.728,51.906 c 6.81932,18.16338 37.35598,19.688753 55.40829,25.681852 8.67755,0.963361 26.53416,4.502951 10.37721,5.129648 16.57508,6.789279 -29.89533,1.751315 -38.214,2.7495 -18.33316,-9.238254 -18.69051,7.743482 -2.0115,11.079 21.2337,9.32771 47.77371,-15.26186 60.552,4.896 -11.44284,17.23746 -17.93165,46.46386 -8.51344,68.56256 6.75543,-12.82577 5.71259,-42.65864 10.85344,-61.49756 8.51915,-22.853537 -1.20415,26.93453 0.35662,38.673 5.49957,31.95844 20.73734,-19.70161 17.03138,-30.654 -7.15616,-15.64287 -5.34791,-30.151441 12.35517,-13.7735 12.16334,11.28175 30.67331,35.52224 43.00345,34.2855 C 235.4825,125.04142 228.2558,98.431401 204.356,92.587 208.36,81.359928 230.91528,77.493692 246.04674,66.778023 256.64092,62.768531 291.47768,36.64915 260.53694,42.433938 239.09978,46.43841 218.19055,70.250244 204.481,71.608 191.45758,74.504655 222.58641,53.907764 225.03798,44.382438 235.88256,34.930382 247.93384,-7.9265296 224.5515,19.093 c -16.08835,8.509757 -23.96466,43.861766 -32.1845,45.63 0.88089,-24.528702 -7.67557,17.355528 -7.056,-7.056 -5.66403,-2.669505 -1.25503,17.608618 -8.532,0.972 C 172.98385,41.640887 170.68089,7.0748296 157.36488,2.6190625 145.0133,27.385398 169.00772,53.515944 170.695,72.571 c -13.30732,-14.145844 4.44661,6.332155 -3.311,2.483 z"
       id="path241"
       inkscape:connector-curvature="0" /><path
       style="fill:#daacec;fill-rule:evenodd;stroke:#000000;stroke-width:0.036;stroke-miterlimit:10"
       d="m 176.24,65.514 c -1.94392,-21.710884 -5.4812,-45.145381 -16.776,-63.756 -9.29834,21.657952 0.19722,48.582918 15.7275,65.2545 0.9059,1.200686 2.10349,-0.805308 1.0485,-1.4985 z"
       id="path243"
       inkscape:connector-curvature="0" /><path
       style="fill-rule:evenodd;stroke:#000000;stroke-width:0.036;stroke-miterlimit:10"
       d="m 158.6,16.194 c 0.054,11.838731 10.20717,38.036594 12.28106,40.71825 C 165.35978,43.836149 160.93314,30.21661 158.6,16.194 z"
       id="path245"
       inkscape:connector-curvature="0" /><path
       style="fill-rule:evenodd;stroke:#000000;stroke-width:0.036;stroke-miterlimit:10"
       d="m 165.656,33.69 c 1.83016,8.731736 9.55655,31.69497 3.276,10.476 l -1.638,-5.319 -1.638,-5.157 0,0 z"
       id="path247"
       inkscape:connector-curvature="0" /><path
       style="fill-rule:evenodd;stroke:#000000;stroke-width:0.036;stroke-miterlimit:10"
       d="m 163.028,42.726 c 3.99477,11.514032 8.9178,19.255843 1.287,3.366 l -1.287,-3.366 0,0 z"
       id="path249"
       inkscape:connector-curvature="0" /><path
       style="fill:#daacec;fill-rule:evenodd;stroke:#000000;stroke-width:0.036;stroke-miterlimit:10"
       d="m 196.112,68.826 c 5.11101,-23.422967 21.31591,-45.702916 41.34237,-58.2075 -2.65891,24.14617 -20.70451,47.123624 -40.95987,59.3775 l -0.3825,-1.17 0,0 z"
       id="path251"
       inkscape:connector-curvature="0" /><path
       style="fill-rule:evenodd;stroke:#000000;stroke-width:0.036;stroke-miterlimit:10"
       d="M 229.16,20.046 C 218.60571,29.845742 202.47301,56.329359 201.10588,61.25025 208.8957,46.50513 218.29739,32.69769 229.16,20.046 z"
       id="path253"
       inkscape:connector-curvature="0" /><path
       style="fill-rule:evenodd;stroke:#000000;stroke-width:0.036;stroke-miterlimit:10"
       d="m 225.884,28.47 c -5.77656,9.518192 -31.93677,43.073541 -11.987,18.252 3.87326,-5.417295 11.57375,-16.268787 11.987,-18.252 z"
       id="path255"
       inkscape:connector-curvature="0" /><path
       style="fill-rule:evenodd;stroke:#000000;stroke-width:0.036;stroke-miterlimit:10"
       d="m 220.844,40.53 c -8.46327,10.727896 -15.75511,21.169932 -2.66787,4.365 -2.53616,3.995397 5.73268,-8.008221 2.66787,-4.365 z"
       id="path257"
       inkscape:connector-curvature="0" /><path
       style="fill:#daacec;fill-rule:evenodd;stroke:#000000;stroke-width:0.036;stroke-miterlimit:10"
       d="M 205.256,78.402 C 220.88726,61.144714 242.7496,49.521686 264.691,42.51 287.41409,42.161721 250.17688,63.052713 243.5095,66.819 230.82423,73.692327 208.57212,85.391813 205.256,78.402 z"
       id="path259"
       inkscape:connector-curvature="0" /><path
       style="fill-rule:evenodd;stroke:#000000;stroke-width:0.036;stroke-miterlimit:10"
       d="m 215.984,71.274 c 14.70361,-9.806743 30.06075,-18.842994 46.872,-24.552 -16.24108,6.95492 -32.01708,14.964138 -46.872,24.552 z"
       id="path261"
       inkscape:connector-curvature="0" /><path
       style="fill-rule:evenodd;stroke:#000000;stroke-width:0.036;stroke-miterlimit:10"
       d="m 217.964,72.39 c 10.10457,-4.603772 50.52605,-25.068279 21.9475,-9.7695 -7.09213,3.735833 -14.54124,6.727465 -21.9475,9.7695 z"
       id="path263"
       inkscape:connector-curvature="0" /><path
       style="fill:#daacec;fill-rule:evenodd;stroke:#000000;stroke-width:0.036;stroke-miterlimit:10"
       d="m 203.06,93.054 c 23.26593,4.905991 31.84874,31.93766 48.7945,43.011 -20.84101,-8.67452 -32.31317,-31.71209 -50.45487,-43.146 l 1.66037,0.135 0,0 z"
       id="path265"
       inkscape:connector-curvature="0" /><path
       style="fill-rule:evenodd;stroke:#000000;stroke-width:0.036;stroke-miterlimit:10"
       d="m 214.796,101.586 c 10.54838,5.974 23.72465,22.81922 7.164,5.796 l -3.933,-3.3975 -3.231,-2.3985 z"
       id="path267"
       inkscape:connector-curvature="0" /><path
       style="fill:#daacec;fill-rule:evenodd;stroke:#000000;stroke-width:0.036;stroke-miterlimit:10"
       d="m 188.48,98.706 c -2.16911,18.19813 -11.06956,45.92402 0.3825,59.0175 8.27845,-18.31812 15.77009,-42.15845 2.7855,-60.1335 -2.02183,3.09682 -1.78128,-0.834835 -3.168,1.116 z"
       id="path269"
       inkscape:connector-curvature="0" /><path
       style="fill-rule:evenodd;stroke:#000000;stroke-width:0.036;stroke-miterlimit:10"
       d="m 190.46,111.162 c 1.56657,8.10805 -5.96673,44.83808 -0.65475,18.46462 1.37456,-6.05918 0.92145,-12.32057 0.65475,-18.46462 z"
       id="path271"
       inkscape:connector-curvature="0" /><path
       style="fill-rule:evenodd;stroke:#000000;stroke-width:0.036;stroke-miterlimit:10"
       d="m 193.484,112.278 c 0.3202,12.28566 -4.58319,35.01515 0,10.332 0.32631,-3.43232 0.4601,-6.89973 0,-10.332 z"
       id="path273"
       inkscape:connector-curvature="0" /><path
       style="fill:#daacec;fill-rule:evenodd;stroke:#000000;stroke-width:0.036;stroke-miterlimit:10"
       d="m 181.172,102.126 c -14.16436,18.7758 -17.163,45.31888 -8.964,67.248 3.34685,-21.95545 6.04482,-44.30355 9.5535,-66.3075 l -0.5895,-0.9405 0,0 z"
       id="path275"
       inkscape:connector-curvature="0" /><path
       style="fill-rule:evenodd;stroke:#000000;stroke-width:0.036;stroke-miterlimit:10"
       d="m 177.572,118.65 c -6.37855,11.28805 -8.07589,52.63208 -4.896,20.124 1.20046,-6.80447 2.92412,-13.50558 4.896,-20.124 z"
       id="path277"
       inkscape:connector-curvature="0" /><path
       style="fill-rule:evenodd;stroke:#000000;stroke-width:0.036;stroke-miterlimit:10"
       d="m 174.692,119.118 c -4.80485,12.06853 -5.69433,28.0178 -1.98,6.588 l 1.071,-4.212 0.909,-2.376 z"
       id="path279"
       inkscape:connector-curvature="0" /><path
       style="fill:#daacec;fill-rule:evenodd;stroke:#000000;stroke-width:0.036;stroke-miterlimit:10"
       d="m 166.592,87.87 c -19.20562,-1.057121 -46.55117,-2.740876 -59.688,-0.54 13.40771,19.30078 57.70649,6.706126 59.688,0.54 l 0,0 z"
       id="path281"
       inkscape:connector-curvature="0" /><path
       style="fill-rule:evenodd;stroke:#000000;stroke-width:0.036;stroke-miterlimit:10"
       d="m 156.476,89.31 c -10.09975,0.310333 -33.65102,3.416778 -37.224,1.08 12.12168,3.470267 24.91782,-0.764121 37.224,-1.08 z"
       id="path283"
       inkscape:connector-curvature="0" /><path
       style="fill-rule:evenodd;stroke:#000000;stroke-width:0.036;stroke-miterlimit:10"
       d="m 132.68,93.414 c 13.01189,-0.50266 24.692,-1.764488 4.977,0.369 l -4.977,-0.369 0,0 z"
       id="path285"
       inkscape:connector-curvature="0" /><path
       style="fill:#daacec;fill-rule:evenodd;stroke:#000000;stroke-width:0.036;stroke-miterlimit:10"
       d="M 167.096,75.738 C 146.66494,59.914671 119.93201,49.871505 94.016,52.626 c 15.07253,20.40051 45.94965,20.645616 69.264,26.208 4.58527,2.652055 4.06789,-2.613619 3.816,-3.096 z"
       id="path287"
       inkscape:connector-curvature="0" /><path
       style="fill-rule:evenodd;stroke:#000000;stroke-width:0.036;stroke-miterlimit:10"
       d="m 109.316,56.226 c 14.15202,2.022219 51.83634,15.091446 50.6475,16.639313 C 143.66276,65.795553 126.52361,60.557262 109.316,56.226 z"
       id="path289"
       inkscape:connector-curvature="0" /><path
       style="fill-rule:evenodd;stroke:#000000;stroke-width:0.036;stroke-miterlimit:10"
       d="m 112.196,60.078 c 9.70113,2.57406 43.9363,13.257127 36.774,11.49075 C 136.69433,67.795807 124.43067,63.982063 112.196,60.078 z"
       id="path291"
       inkscape:connector-curvature="0" /><path
       style="fill:#c58b2a;fill-rule:evenodd;stroke:#000000;stroke-width:0.036;stroke-miterlimit:10"
       d="m 177.176,65.334 c -3.42687,-11.288774 9.76193,9.659794 5.688,-7.775 0.5848,10.885501 8.00937,10.131457 8.64,-0.612 -6.16754,17.902171 21.68052,15.911792 16.668,16.344 -7.46065,5.095436 -0.0881,4.909965 0.576,9.828 18.26436,-2.453515 -8.0961,1.875555 -5.04,9.396 -5.89111,-0.08135 -23.34556,13.66542 -27.324,4.104 -4.10267,-5.83823 -22.55667,-17.317965 -8.964,-13.572 0.10316,-14.344702 2.80019,-8.129573 9.756,-17.713 l 0,0 z"
       id="path293"
       inkscape:connector-curvature="0" /><path
       style="fill-rule:evenodd;stroke:#000000;stroke-width:0.036;stroke-miterlimit:10"
       d="m 176.276,75.846 c -6.85897,10.345689 8.45963,14.625739 17.532,9.036 2.77884,-7.643784 2.79408,-12.197495 -9.684,-14.976 4.9285,7.559539 -10.01268,-5.613464 -4.68,4.932 -1.13254,-4.050697 -4.27294,-2.795451 -3.168,1.008 z"
       id="path295"
       inkscape:connector-curvature="0" /><path
       style="fill:#ddaa13;fill-rule:evenodd;stroke:#000000;stroke-width:0.036;stroke-miterlimit:10"
       d="m 177.176,78.978 c -5.21092,-6.418114 8.14999,-10.489319 11.736,-4.788 11.31127,-2.311068 5.33005,16.714856 -6.84,10.656 -3.9692,6.152409 -7.85086,-2.778731 -4.896,-5.868 z"
       id="path297"
       inkscape:connector-curvature="0" /><path
       style="fill-rule:evenodd;stroke:#000000;stroke-width:0.036;stroke-miterlimit:10"
       d="m 172.784,78.726 c -6.41207,1.273858 -2.3618,6.435497 0,0 z"
       id="path299"
       inkscape:connector-curvature="0" /><path
       style="fill-rule:evenodd;stroke:#000000;stroke-width:0.036;stroke-miterlimit:10"
       d="m 174.296,72.03 c 2.05799,-4.803631 3.97765,-4.203076 0,0 z"
       id="path301"
       inkscape:connector-curvature="0" /><path
       style="fill-rule:evenodd;stroke:#000000;stroke-width:0.036;stroke-miterlimit:10"
       d="m 183.26,77.682 c 1.18852,6.841669 7.4162,1.772293 0,0 z"
       id="path303"
       inkscape:connector-curvature="0" /><path
       style="fill-rule:evenodd;stroke:#000000;stroke-width:0.036;stroke-miterlimit:10"
       d="m 180.668,79.914 c -5.00383,1.017938 -2.31321,-8.360317 0,0 z"
       id="path305"
       inkscape:connector-curvature="0" /><path
       style="fill-rule:evenodd;stroke:#000000;stroke-width:0.036;stroke-miterlimit:10"
       d="m 182,81.714 c -3.09664,3.546887 1.04293,3.007921 0,0 l 0,0 z"
       id="path307"
       inkscape:connector-curvature="0" /><path
       style="fill-rule:evenodd;stroke:#000000;stroke-width:0.036;stroke-miterlimit:10"
       d="m 182.036,77.466 c 0.86119,-3.193342 1.69732,-9.871482 0,0 z"
       id="path309"
       inkscape:connector-curvature="0" /><path
       style="fill-rule:evenodd;stroke:#000000;stroke-width:0.036;stroke-miterlimit:10"
       d="m 187.616,75.954 c 3.81475,-1.948537 7.34995,6.576148 0,0 z"
       id="path311"
       inkscape:connector-curvature="0" /><path
       style="fill-rule:evenodd;stroke:#000000;stroke-width:0.036;stroke-miterlimit:10"
       d="m 189.308,78.834 c 2.57743,4.869623 0.16418,-0.831352 0,0 z"
       id="path313"
       inkscape:connector-curvature="0" /><path
       style="fill-rule:evenodd;stroke:#000000;stroke-width:0.036;stroke-miterlimit:10"
       d="m 199.136,77.898 c 5.35038,4.932326 -7.81906,3.337272 1.836,1.332 l -1.836,-1.332 0,0 z"
       id="path315"
       inkscape:connector-curvature="0" /><path
       style="fill-rule:evenodd;stroke:#000000;stroke-width:0.036;stroke-miterlimit:10"
       d="m 202.376,75.666 c 2.36409,1.644223 -2.03303,3.045216 0,0 z"
       id="path317"
       inkscape:connector-curvature="0" /><path
       style="fill-rule:evenodd;stroke:#000000;stroke-width:0.036;stroke-miterlimit:10"
       d="m 190.424,67.134 c -3.8524,1.721864 3.24674,8.133235 0,0 z"
       id="path319"
       inkscape:connector-curvature="0" /><path
       style="fill-rule:evenodd;stroke:#000000;stroke-width:0.036;stroke-miterlimit:10"
       d="m 187.436,66.774 c -3.89001,0.539593 -2.6926,3.598314 0,0 z"
       id="path321"
       inkscape:connector-curvature="0" /><path
       style="fill-rule:evenodd;stroke:#000000;stroke-width:0.036;stroke-miterlimit:10"
       d="m 182.504,68.214 c -4.24441,-1.851283 -2.74245,1.318402 0,0 z"
       id="path323"
       inkscape:connector-curvature="0" /><path
       style="fill-rule:evenodd;stroke:#000000;stroke-width:0.036;stroke-miterlimit:10"
       d="m 182.54,87.87 c 0.88172,7.193532 5.68222,7.416443 0,0 z"
       id="path325"
       inkscape:connector-curvature="0" /><path
       style="fill-rule:evenodd;stroke:#000000;stroke-width:0.036;stroke-miterlimit:10"
       d="m 189.38,90.966 c 4.63522,2.213181 6.83221,-6.872665 0,0 z"
       id="path327"
       inkscape:connector-curvature="0" /><path
       style="fill-rule:evenodd;stroke:#000000;stroke-width:0.036;stroke-miterlimit:10"
       d="m 195.68,85.35 c 5.60582,5.713834 5.52144,-9.134198 2.16,1.8 l -1.134,-0.441 -1.026,-1.359 0,0 z"
       id="path329"
       inkscape:connector-curvature="0" /><path
       style="fill-rule:evenodd;stroke:#000000;stroke-width:0.036;stroke-miterlimit:10"
       d="m 196.004,89.274 c 2.39868,4.530929 -4.52865,9.10607 0,0 z"
       id="path331"
       inkscape:connector-curvature="0" /><path
       style="fill-rule:evenodd;stroke:#000000;stroke-width:0.036;stroke-miterlimit:10"
       d="m 202.088,86.97 c 1.62753,4.834463 -3.61503,6.619345 0,0 z"
       id="path333"
       inkscape:connector-curvature="0" /><path
       style="fill-rule:evenodd;stroke:#000000;stroke-width:0.036;stroke-miterlimit:10"
       d="m 203.42,81.246 c 4.82857,2.391681 0.51721,5.473206 0,0 z"
       id="path335"
       inkscape:connector-curvature="0" /><path
       style="fill-rule:evenodd;stroke:#000000;stroke-width:0.036;stroke-miterlimit:10"
       d="m 172.964,84.81 c -4.70374,4.827476 -1.63586,7.481169 0,0 z"
       id="path337"
       inkscape:connector-curvature="0" /><path
       style="fill-rule:evenodd;stroke:#000000;stroke-width:0.036;stroke-miterlimit:10"
       d="m 176.924,89.49 c -4.45526,3.622288 -1.49759,8.288955 0,0 z"
       id="path339"
       inkscape:connector-curvature="0" /><path
       style="fill-rule:evenodd;stroke:#000000;stroke-width:0.036;stroke-miterlimit:10"
       d="m 179.444,91.254 c 1.39957,6.539397 -3.32042,8.554044 0,0 z"
       id="path341"
       inkscape:connector-curvature="0" /><path
       style="fill-rule:evenodd;stroke:#000000;stroke-width:0.036;stroke-miterlimit:10"
       d="m 185.672,94.53 c -1.95619,5.95822 -5.49988,-0.850166 0,0 z"
       id="path343"
       inkscape:connector-curvature="0" /><path
       style="fill-rule:evenodd;stroke:#000000;stroke-width:0.036;stroke-miterlimit:10"
       d="m 255.944,91.29 c -3.0939,-10.073069 -10.55324,-51.638643 -18.937,-24.192 3.10365,18.503123 5.03659,11.733965 -7.5545,1.8225 -31.57849,-11.166913 26.64557,49.179 2.2465,24.984 -9.16831,-5.780783 -25.30104,-31.525116 -33.382,-23.418 1.83243,19.162882 29.62351,42.32013 36.36844,45.21431 -20.12567,-2.16266 -43.8229,-9.91744 -61.95488,1.66332 8.84745,20.41434 39.79509,7.02359 59.78156,10.71787 8.17199,6.22825 -40.15791,12.2964 -32.85412,27.981 12.86237,8.07742 42.49932,-22.69794 20.251,-0.657 -15.40192,24.93312 15.863,0.99677 21.7215,-7.452 4.59182,-9.1916 -8.09532,33.28438 5.97375,16.82156 -2.0538,-19.5991 15.8528,-40.37588 20.62758,-11.8935 10.04812,10.00236 6.62603,29.76624 11.54367,36.68344 27.22368,-9.14935 -20.74258,-50.34683 -9.02525,-51.759 10.77093,16.87531 34.08031,30.69944 51.57577,28.92038 -6.80913,-17.73972 -43.41586,-22.72358 -44.45802,-34.61288 20.62855,-3.75772 46.12611,-2.67793 67.3262,-4.24631 -7.83653,-21.18938 -43.24824,-4.14019 -61.0252,-3.85369 12.91492,-7.95503 39.806,-8.11833 57.69775,-14.5395 25.13383,-4.25573 -1.19874,-24.522753 -14.55025,-11.8395 -25.76057,16.47078 29.6632,-20.165754 0.67142,-19.448437 C 314.70796,87.473035 289.35453,101.95963 278.446,100.974 287.92233,84.939206 314.11786,71.273374 308.435,51.33 288.36276,53.333426 283.30176,83.155394 269.374,96.546 274.1401,76.407096 291.40094,51.76637 282.85458,33.0015 271.14176,43.679064 259.01816,48.228546 262.52811,69.043125 260.75594,75.289711 261.0154,89.139522 255.944,91.29 z"
       id="path345"
       inkscape:connector-curvature="0" /><path
       style="fill:#daacec;fill-rule:evenodd;stroke:#000000;stroke-width:0.036;stroke-miterlimit:10"
       d="m 259.76,93.99 c 1.99236,-19.576996 7.87207,-49.936216 24.948,-59.364 1.0641,20.092434 -9.53577,48.214876 -17.783,60.84 -5.82112,0.112126 0.23774,-17.392897 -6.263,-0.828 L 259.76,93.99 z"
       id="path347"
       inkscape:connector-curvature="0" /><path
       style="fill-rule:evenodd;stroke:#000000;stroke-width:0.036;stroke-miterlimit:10"
       d="m 279.2,46.866 c -6.7947,9.313525 -16.51808,50.186089 -7.98623,20.42775 2.3158,-6.938336 4.84755,-13.813893 7.98623,-20.42775 z"
       id="path349"
       inkscape:connector-curvature="0" /><path
       style="fill-rule:evenodd;stroke:#000000;stroke-width:0.036;stroke-miterlimit:10"
       d="m 274.16,67.062 c -4.28829,10.17828 -8.30481,32.214632 -3.06,9.936 l 1.503,-5.292 1.557,-4.644 0,0 z"
       id="path351"
       inkscape:connector-curvature="0" /><path
       style="fill:#daacec;fill-rule:evenodd;stroke:#000000;stroke-width:0.036;stroke-miterlimit:10"
       d="m 262.82,72.426 c -2.38232,-7.749226 4.26629,-37.927097 8.48738,-23.3055 -3.18978,7.629347 -5.94756,15.438403 -8.48738,23.3055 z"
       id="path353"
       inkscape:connector-curvature="0" /><path
       style="fill:#daacec;fill-rule:evenodd;stroke:#000000;stroke-width:0.036;stroke-miterlimit:10"
       d="m 273.44,91.362 c 10.96792,-9.640268 22.44549,-50.748494 36.8215,-34.5195 -3.80229,13.251536 -27.55662,41.597031 -31.7025,38.754 -7.68421,1.627256 -2.88727,3.260697 -5.119,-4.2345 z"
       id="path355"
       inkscape:connector-curvature="0" /><path
       style="fill-rule:evenodd;stroke:#000000;stroke-width:0.036;stroke-miterlimit:10"
       d="m 280.064,89.418 c 8.4276,-5.932764 29.38844,-40.879016 14.13675,-17.40375 -4.31173,6.112871 -9.12511,11.856515 -14.13675,17.40375 z"
       id="path357"
       inkscape:connector-curvature="0" /><path
       style="fill-rule:evenodd;stroke:#000000;stroke-width:0.036;stroke-miterlimit:10"
       d="m 286.364,85.242 c 8.77346,-10.764813 11.83646,-11.945532 0,0 z"
       id="path359"
       inkscape:connector-curvature="0" /><path
       style="fill-rule:evenodd;stroke:#000000;stroke-width:0.036;stroke-miterlimit:10"
       d="m 288.272,78.51 c 6.01838,-8.03419 9.10895,-14.645102 0,0 z"
       id="path361"
       inkscape:connector-curvature="0" /><path
       style="fill:#daacec;fill-rule:evenodd;stroke:#000000;stroke-width:0.036;stroke-miterlimit:10"
       d="m 280.244,104.286 c 18.50817,-5.107981 40.24636,-26.381763 55.693,-22.896 -2.27423,20.50812 -43.34493,31.07635 -48.421,28.764 -6.55829,0.19996 -3.81546,-4.77953 -10.476,0.216 4.93978,0.11645 -0.471,-6.23913 3.204,-6.084 z"
       id="path363"
       inkscape:connector-curvature="0" /><path
       style="fill-rule:evenodd;stroke:#000000;stroke-width:0.036;stroke-miterlimit:10"
       d="m 291.404,106.302 c 10.57666,-0.77603 38.82869,-22.579685 33.444,-18.126 -9.13525,9.0893 -21.60523,13.72396 -33.444,18.126 z"
       id="path365"
       inkscape:connector-curvature="0" /><path
       style="fill-rule:evenodd;stroke:#000000;stroke-width:0.036;stroke-miterlimit:10"
       d="m 311.024,99.498 c 12.68792,-7.081538 18.52346,-10.982969 2.79448,-1.11375 L 311.024,99.498 z"
       id="path367"
       inkscape:connector-curvature="0" /><path
       style="fill-rule:evenodd;stroke:#000000;stroke-width:0.036;stroke-miterlimit:10"
       d="m 296.264,101.622 c 7.63176,-2.608314 26.32825,-13.084473 8.424,-4.032 l -4.32,2.07 -4.104,1.962 0,0 z"
       id="path369"
       inkscape:connector-curvature="0" /><path
       style="fill:#daacec;fill-rule:evenodd;stroke:#000000;stroke-width:0.036;stroke-miterlimit:10"
       d="m 285.86,114.834 c 20.41712,-3.627 49.60657,-30.445055 66.442,-13.5585 -13.37371,15.31041 -43.83161,12.08082 -63.896,18.4985 -9.4503,2.94444 -2.66743,-1.04153 -2.546,-4.94 z"
       id="path371"
       inkscape:connector-curvature="0" /><path
       style="fill-rule:evenodd;stroke:#000000;stroke-width:0.036;stroke-miterlimit:10"
       d="m 301.484,113.682 c 10.60658,-5.62185 46.04159,-14.495521 41.121,-12.4965 -14.23858,1.84388 -27.36152,8.64739 -41.121,12.4965 z"
       id="path373"
       inkscape:connector-curvature="0" /><path
       style="fill-rule:evenodd;stroke:#000000;stroke-width:0.036;stroke-miterlimit:10"
       d="m 330.393,107.094 c 10.62965,-3.5739 18.53726,-2.88826 2.87025,-0.747 l -2.87025,0.747 z"
       id="path375"
       inkscape:connector-curvature="0" /><path
       style="fill:#daacec;fill-rule:evenodd;stroke:#000000;stroke-width:0.036;stroke-miterlimit:10"
       d="m 283.844,124.374 c 17.82368,-0.002 53.69056,-16.92684 60.066,3.546 -17.6444,-3.40957 -53.99354,7.29998 -61.038,-1.566 l 0.972,-1.98 0,0 z"
       id="path377"
       inkscape:connector-curvature="0" /><path
       style="fill-rule:evenodd;stroke:#000000;stroke-width:0.036;stroke-miterlimit:10"
       d="m 304.22,124.158 c 11.4601,-4.80758 51.82862,1.13868 21.204,-2.016 -7.08137,0.52081 -14.14941,1.21234 -21.204,2.016 z"
       id="path379"
       inkscape:connector-curvature="0" /><path
       style="fill-rule:evenodd;stroke:#000000;stroke-width:0.036;stroke-miterlimit:10"
       d="m 322.472,124.446 c 11.68204,-0.57324 15.01659,1.05769 0,0 z"
       id="path381"
       inkscape:connector-curvature="0" /><path
       style="fill:#daacec;fill-rule:evenodd;stroke:#000000;stroke-width:0.036;stroke-miterlimit:10"
       d="m 274.124,133.266 c 12.64156,14.07102 43.47386,16.14433 45.862,35.388 -17.33423,-4.97834 -49.28112,-19.60286 -46.946,-33.768 l 1.084,-1.62 0,0 z"
       id="path383"
       inkscape:connector-curvature="0" /><path
       style="fill-rule:evenodd;stroke:#000000;stroke-width:0.036;stroke-miterlimit:10"
       d="m 276.14,138.054 c 6.12496,10.73466 33.91962,17.41233 33.5395,20.56725 -11.20086,-7.37311 -25.63356,-8.22841 -33.5395,-20.56725 z"
       id="path385"
       inkscape:connector-curvature="0" /><path
       style="fill-rule:evenodd;stroke:#000000;stroke-width:0.036;stroke-miterlimit:10"
       d="m 294.896,153.678 c 10.33393,2.76552 21.18068,11.00614 5.112,2.016 3.10374,0.0958 -8.9573,-2.55802 -5.112,-2.016 z"
       id="path387"
       inkscape:connector-curvature="0" /><path
       style="fill:#daacec;fill-rule:evenodd;stroke:#000000;stroke-width:0.036;stroke-miterlimit:10"
       d="m 265.484,136.146 c 7.49506,13.43422 36.48665,50.42092 11.375,50.94 8.7057,-16.89944 -17.97757,-39.40405 -11.375,-50.94 z"
       id="path389"
       inkscape:connector-curvature="0" /><path
       style="fill:#daacec;fill-rule:evenodd;stroke:#000000;stroke-width:0.036;stroke-miterlimit:10"
       d="m 250.148,100.398 c -6.61572,-10.853854 -16.11341,-38.384486 -29.879,-30.924 5.22399,14.709059 18.91416,39.96633 29.879,30.924 z"
       id="path391"
       inkscape:connector-curvature="0" /><path
       style="fill-rule:evenodd;stroke:#000000;stroke-width:0.036;stroke-miterlimit:10"
       d="m 226.28,76.242 c 3.22024,10.287723 23.49578,31.86628 7.307,12.132 -2.66391,-3.900057 -5.1409,-7.932917 -7.307,-12.132 z"
       id="path393"
       inkscape:connector-curvature="0" /><path
       style="fill-rule:evenodd;stroke:#000000;stroke-width:0.036;stroke-miterlimit:10"
       d="m 233.876,84.018 c 5.43732,10.837347 12.66499,17.86538 1.90813,3.582 L 233.876,84.018 z"
       id="path395"
       inkscape:connector-curvature="0" /><path
       style="fill:#daacec;fill-rule:evenodd;stroke:#000000;stroke-width:0.036;stroke-miterlimit:10"
       d="m 241.185,83.082 c -10.0834,-10.606558 1.67577,-40.229403 8.063,-16.272 -0.11741,11.562339 10.53378,27.42 2.80763,28.674 0.89459,13.59161 -8.19476,-9.645258 -10.87063,-12.402 z"
       id="path397"
       inkscape:connector-curvature="0" /><path
       style="fill-rule:evenodd;stroke:#000000;stroke-width:0.036;stroke-miterlimit:10"
       d="m 241.724,66.018 c -0.32065,9.719004 13.4295,36.55864 3.745,14.652 -1.63002,-4.777404 -2.75141,-9.709208 -3.745,-14.652 z"
       id="path399"
       inkscape:connector-curvature="0" /><path
       style="fill-rule:evenodd;stroke:#000000;stroke-width:0.036;stroke-miterlimit:10"
       d="m 244.46,66.558 c 1.97048,12.398797 7.06458,24.443606 1.0805,4.995 l -1.0805,-4.995 0,0 z"
       id="path401"
       inkscape:connector-curvature="0" /><path
       style="fill:#daacec;fill-rule:evenodd;stroke:#000000;stroke-width:0.036;stroke-miterlimit:10"
       d="m 243.596,104.574 c -13.46779,-5.744684 -35.61605,-42.434086 -44.278,-32.292 4.81711,18.008593 28.33811,46.87345 41.544,40.752 -14.78957,-11.03839 6.48823,-3.6251 2.734,-8.46 z"
       id="path403"
       inkscape:connector-curvature="0" /><path
       style="fill-rule:evenodd;stroke:#000000;stroke-width:0.036;stroke-miterlimit:10"
       d="m 205.976,78.618 c 3.83833,11.432244 37.89676,39.23942 14.41308,17.901 C 215.04725,91.015186 210.10917,85.089579 205.976,78.618 z"
       id="path405"
       inkscape:connector-curvature="0" /><path
       style="fill-rule:evenodd;stroke:#000000;stroke-width:0.036;stroke-miterlimit:10"
       d="m 211.809,81.21 c 6.10831,10.997814 36.7227,34.13732 12.672,13.896 -4.47702,-4.392659 -8.70531,-9.037751 -12.672,-13.896 z"
       id="path407"
       inkscape:connector-curvature="0" /><path
       style="fill-rule:evenodd;stroke:#000000;stroke-width:0.036;stroke-miterlimit:10"
       d="m 218.648,97.95 c 7.51889,9.01599 19.28018,16.41015 3.76187,3.9105 L 218.648,97.95 l 0,0 z"
       id="path409"
       inkscape:connector-curvature="0" /><path
       style="fill:#daacec;fill-rule:evenodd;stroke:#000000;stroke-width:0.036;stroke-miterlimit:10"
       d="m 244.928,128.334 c -19.96537,-4.279 -45.2383,4.52781 -63.721,-3.276 5.91382,-17.78516 41.44963,-5.5411 57.62967,-3.13819 6.62313,-0.61 -0.42703,5.3857 6.09133,6.41419 z"
       id="path411"
       inkscape:connector-curvature="0" /><path
       style="fill-rule:evenodd;stroke:#000000;stroke-width:0.036;stroke-miterlimit:10"
       d="m 189.164,122.25 c 11.49603,-2.14001 43.05095,-1.50975 44.62256,0.82575 -14.68835,-3.47067 -29.75384,-1.56832 -44.62256,-0.82575 z"
       id="path413"
       inkscape:connector-curvature="0" /><path
       style="fill-rule:evenodd;stroke:#000000;stroke-width:0.036;stroke-miterlimit:10"
       d="m 206.12,123.87 c 9.78246,-1.34813 38.25741,2.68139 14.148,0.468 -4.71262,-0.23475 -9.42727,-0.50636 -14.148,-0.468 z"
       id="path415"
       inkscape:connector-curvature="0" /><path
       style="fill:#daacec;fill-rule:evenodd;stroke:#000000;stroke-width:0.036;stroke-miterlimit:10"
       d="m 179.768,122.106 c -19.70143,-6.79595 18.98067,-13.84718 27.306,-9.593 11.43888,-2.45112 52.05568,11.58556 23.21367,6.66619 -14.49041,-1.46659 -41.25364,-9.82914 -50.51967,2.92681 z"
       id="path417"
       inkscape:connector-curvature="0" /><path
       style="fill-rule:evenodd;stroke:#000000;stroke-width:0.036;stroke-miterlimit:10"
       d="m 221.024,115.446 c 12.212,1.94345 23.69571,5.93785 4.82838,0.999 l -4.82838,-0.999 0,0 z"
       id="path419"
       inkscape:connector-curvature="0" /><path
       style="fill:#daacec;fill-rule:evenodd;stroke:#000000;stroke-width:0.036;stroke-miterlimit:10"
       d="m 245.252,128.658 c -14.47032,4.13828 -46.23807,11.8252 -45.254,26.892 12.37604,3.98135 50.09171,-17.40822 45.254,-26.892 z"
       id="path421"
       inkscape:connector-curvature="0" /><path
       style="fill-rule:evenodd;stroke:#000000;stroke-width:0.036;stroke-miterlimit:10"
       d="m 205.184,150.078 c 10.9071,-1.08824 53.98202,-25.90794 26.18269,-10.94625 -8.51513,4.12585 -17.30605,7.67811 -26.18269,10.94625 z"
       id="path423"
       inkscape:connector-curvature="0" /><path
       style="fill-rule:evenodd;stroke:#000000;stroke-width:0.036;stroke-miterlimit:10"
       d="m 214.724,148.638 c 16.6268,-6.10875 15.74866,-7.03902 0,0 z"
       id="path425"
       inkscape:connector-curvature="0" /><path
       style="fill-rule:evenodd;stroke:#000000;stroke-width:0.036;stroke-miterlimit:10"
       d="m 230.708,136.146 c 9.63858,-3.09701 17.45337,-7.71106 0,0 z"
       id="path427"
       inkscape:connector-curvature="0" /><path
       style="fill:#daacec;fill-rule:evenodd;stroke:#000000;stroke-width:0.036;stroke-miterlimit:10"
       d="m 248.672,133.626 c -10.05601,7.057 -39.5222,22.97787 -29.376,33.588 8.12802,-11.53589 34.5499,-21.88531 29.376,-33.588 z"
       id="path429"
       inkscape:connector-curvature="0" /><path
       style="fill-rule:evenodd;stroke:#000000;stroke-width:0.036;stroke-miterlimit:10"
       d="m 230.528,151.482 c 4.80228,-6.80197 24.05483,-20.1207 7.632,-7.416 l -3.897,3.546 -3.735,3.87 z"
       id="path431"
       inkscape:connector-curvature="0" /><path
       style="fill:#daacec;fill-rule:evenodd;stroke:#000000;stroke-width:0.036;stroke-miterlimit:10"
       d="m 254.792,138.342 c -6.29576,6.31797 -10.04005,46.32424 -14.472,20.817 2.52437,-10.11482 6.38163,-17.87572 14.472,-20.817 z"
       id="path433"
       inkscape:connector-curvature="0" /><path
       style="fill-rule:evenodd;stroke:#000000;stroke-width:0.036;stroke-miterlimit:10"
       d="m 245.54,153.714 c 2.42258,-10.86596 4.47791,-15.22117 0,0 z"
       id="path435"
       inkscape:connector-curvature="0" /><path
       style="fill-rule:evenodd;stroke:#000000;stroke-width:0.036;stroke-miterlimit:10"
       d="m 265.952,141.978 c 5.97067,9.67551 19.61049,36.06284 16.308,38.88 2.14284,-14.60599 -10.86018,-26.28811 -16.308,-38.88 z"
       id="path437"
       inkscape:connector-curvature="0" /><path
       style="fill-rule:evenodd;stroke:#000000;stroke-width:0.036;stroke-miterlimit:10"
       d="m 284.672,174.054 c -2.12005,11.0577 -0.70661,10.85095 0,0 z"
       id="path439"
       inkscape:connector-curvature="0" /><path
       style="fill:#c58b2a;fill-rule:evenodd;stroke:#000000;stroke-width:0.036;stroke-miterlimit:10"
       d="m 244.893,107.634 c -5.37639,-10.34401 12.65387,-2.38732 7.884,-14.796 3.83398,6.666022 4.61657,-7.819042 8.101,2.628 4.54969,-21.055195 1.05322,15.15207 12.313,-3.384 0.36853,7.017322 9.6755,6.198582 4.75,19.26 6.47104,-8.63507 0.96569,3.94167 8.855,-1.512 -4.50059,8.46193 -0.53472,24.15244 -16.775,23.904 -11.54967,6.75364 -20.36375,8.20426 -26.534,-6.624 3.00599,-7.53804 -15.3793,-25.60653 1.406,-19.476 z"
       id="path441"
       inkscape:connector-curvature="0" /><path
       style="fill-rule:evenodd;stroke:#000000;stroke-width:0.036;stroke-miterlimit:10"
       d="m 257.744,108.174 c -8.52306,-0.68511 -4.7425,12.87617 -2.16,15.48 7.84178,6.80695 11.2604,-3.03126 19.872,-4.536 -5.66696,-1.31649 -0.76207,-21.229953 -6.62238,-8.262 -0.50321,9.49264 -4.81068,-14.862521 -4.82362,0.414 -0.99551,-2.28443 -6.76699,-18.056049 -6.266,-3.096 z"
       id="path443"
       inkscape:connector-curvature="0" /><path
       style="fill:#ddaa13;fill-rule:evenodd;stroke:#000000;stroke-width:0.036;stroke-miterlimit:10"
       d="m 255.836,113.07 c -7.75291,6.4223 0.77804,7.70477 4.069,13.68 3.13271,-5.83277 10.85133,-2.9708 14.183,-8.496 -2.53199,-6.40225 -2.95709,-17.37802 -5.005,-4.356 -6.40492,-4.15009 -1.61062,-10.28182 -6.012,-2.556 -0.70254,-9.50949 -6.05806,-8.22551 -6.734,-3.636 -3.93113,-1.00877 -4.02678,4.69071 -0.501,5.364 z"
       id="path445"
       inkscape:connector-curvature="0" /><path
       style="fill-rule:evenodd;stroke:#000000;stroke-width:0.036;stroke-miterlimit:10"
       d="m 257.672,97.122 c -3.59857,1.070753 -0.24414,10.53092 0,0 z"
       id="path447"
       inkscape:connector-curvature="0" /><path
       style="fill-rule:evenodd;stroke:#000000;stroke-width:0.036;stroke-miterlimit:10"
       d="m 261.74,98.202 c 8.83356,-1.344048 -1.80039,10.9369 2.23,0.108 l -2.23,-0.108 0,0 z"
       id="path449"
       inkscape:connector-curvature="0" /><path
       style="fill-rule:evenodd;stroke:#000000;stroke-width:0.036;stroke-miterlimit:10"
       d="m 270.776,97.878 c -4.66487,1.357723 -1.90976,7.59935 0,0 z"
       id="path451"
       inkscape:connector-curvature="0" /><path
       style="fill-rule:evenodd;stroke:#000000;stroke-width:0.036;stroke-miterlimit:10"
       d="m 274.088,100.182 c 6.33401,3.9627 -12.26225,3.98126 1.945,1.26 l -1.945,-1.26 0,0 z"
       id="path453"
       inkscape:connector-curvature="0" /><path
       style="fill-rule:evenodd;stroke:#000000;stroke-width:0.036;stroke-miterlimit:10"
       d="m 274.664,105.114 c 4.41914,1.68799 0.33388,8.27151 0,0 z"
       id="path455"
       inkscape:connector-curvature="0" /><path
       style="fill-rule:evenodd;stroke:#000000;stroke-width:0.036;stroke-miterlimit:10"
       d="m 275.888,111.486 c -3.21765,7.0804 1.6352,9.10535 0,0 z"
       id="path457"
       inkscape:connector-curvature="0" /><path
       style="fill-rule:evenodd;stroke:#000000;stroke-width:0.036;stroke-miterlimit:10"
       d="m 278.588,113.682 c 4.56703,1.18029 4.13481,4.28829 0,0 z"
       id="path459"
       inkscape:connector-curvature="0" /><path
       style="fill-rule:evenodd;stroke:#000000;stroke-width:0.036;stroke-miterlimit:10"
       d="m 284.168,111.882 c -2.63678,3.06172 -0.49327,3.15548 0,0 z"
       id="path461"
       inkscape:connector-curvature="0" /><path
       style="fill-rule:evenodd;stroke:#000000;stroke-width:0.036;stroke-miterlimit:10"
       d="m 278.48,118.65 c 9.56728,3.41823 -6.20536,5.24118 2.88,2.376 l -2.88,-2.376 0,0 z"
       id="path463"
       inkscape:connector-curvature="0" /><path
       style="fill-rule:evenodd;stroke:#000000;stroke-width:0.036;stroke-miterlimit:10"
       d="m 275.492,122.574 c 4.01976,11.12514 -12.75093,-5.80692 -0.109,3.924 l 0.109,-3.924 z"
       id="path465"
       inkscape:connector-curvature="0" /><path
       style="fill-rule:evenodd;stroke:#000000;stroke-width:0.036;stroke-miterlimit:10"
       d="m 278.517,124.878 c 3.31086,6.94695 0.39465,-1.5112 0,0 z"
       id="path467"
       inkscape:connector-curvature="0" /><path
       style="fill-rule:evenodd;stroke:#000000;stroke-width:0.036;stroke-miterlimit:10"
       d="m 274.484,128.046 c 0.13336,5.00004 -3.61889,2.65125 0,0 z"
       id="path469"
       inkscape:connector-curvature="0" /><path
       style="fill-rule:evenodd;stroke:#000000;stroke-width:0.036;stroke-miterlimit:10"
       d="m 268.904,124.59 c 5.11062,9.74061 -13.80041,-0.34806 1.44,4.14 l 0.433,-1.584 -1.873,-2.556 0,0 z"
       id="path471"
       inkscape:connector-curvature="0" /><path
       style="fill-rule:evenodd;stroke:#000000;stroke-width:0.036;stroke-miterlimit:10"
       d="m 267.032,131.682 c -0.52937,5.79342 -9.68306,-2.94557 0,0 z"
       id="path473"
       inkscape:connector-curvature="0" /><path
       style="fill-rule:evenodd;stroke:#000000;stroke-width:0.036;stroke-miterlimit:10"
       d="m 259.185,129.054 c -1.68229,11.54899 -9.9752,4.74758 -0.28875,3.807 l 0.28875,-3.807 0,0 z"
       id="path475"
       inkscape:connector-curvature="0" /><path
       style="fill-rule:evenodd;stroke:#000000;stroke-width:0.036;stroke-miterlimit:10"
       d="m 256.736,127.542 c -2.50318,5.45037 -4.70808,4.54307 0,0 z"
       id="path477"
       inkscape:connector-curvature="0" /><path
       style="fill-rule:evenodd;stroke:#000000;stroke-width:0.036;stroke-miterlimit:10"
       d="m 251.517,125.67 c -8.40735,4.39162 8.59781,-12.24731 0,0 z"
       id="path479"
       inkscape:connector-curvature="0" /><path
       style="fill-rule:evenodd;stroke:#000000;stroke-width:0.036;stroke-miterlimit:10"
       d="m 250.832,129.63 c -7.32516,-2.83287 2.5393,7.12692 -2.448,-0.36 l 2.448,0.36 0,0 z"
       id="path481"
       inkscape:connector-curvature="0" /><path
       style="fill-rule:evenodd;stroke:#000000;stroke-width:0.036;stroke-miterlimit:10"
       d="m 250.148,121.278 c -10.12955,-0.25272 -9.38927,-4.45077 0.467,0.324 l -0.467,-0.324 0,0 z"
       id="path483"
       inkscape:connector-curvature="0" /><path
       style="fill-rule:evenodd;stroke:#000000;stroke-width:0.036;stroke-miterlimit:10"
       d="m 247.628,123.258 c -4.32776,-1.47578 -4.41017,6.38043 0,0 z"
       id="path485"
       inkscape:connector-curvature="0" /><path
       style="fill-rule:evenodd;stroke:#000000;stroke-width:0.036;stroke-miterlimit:10"
       d="m 250.796,113.466 c -5.67516,1.2028 -4.62114,5.06652 0,0 z"
       id="path487"
       inkscape:connector-curvature="0" /><path
       style="fill-rule:evenodd;stroke:#000000;stroke-width:0.036;stroke-miterlimit:10"
       d="m 243.813,111.126 c -6.62495,-3.11391 12.54201,-7.11052 -1.54875,-0.918 l 1.54875,0.918 0,0 z"
       id="path489"
       inkscape:connector-curvature="0" /><path
       style="fill-rule:evenodd;stroke:#000000;stroke-width:0.036;stroke-miterlimit:10"
       d="m 250.4,110.73 c -3.58138,-0.69388 1.49793,-5.366 0,0 z"
       id="path491"
       inkscape:connector-curvature="0" /><path
       style="fill-rule:evenodd;stroke:#000000;stroke-width:0.036;stroke-miterlimit:10"
       d="m 250.94,106.626 c -1.5415,-6.45358 3.46461,-10.512026 0,0 z"
       id="path493"
       inkscape:connector-curvature="0" /><path
       style="fill-rule:evenodd;stroke:#000000;stroke-width:0.036;stroke-miterlimit:10"
       d="m 263.072,115.662 c -4.74636,9.98846 -8.07809,-11.21278 -2.449,3.672 l 1.512,-0.648 0.937,-3.024 0,0 z"
       id="path495"
       inkscape:connector-curvature="0" /><path
       style="fill-rule:evenodd;stroke:#000000;stroke-width:0.036;stroke-miterlimit:10"
       d="m 268.868,116.202 c 3.36072,3.93063 -2.47943,4.39673 0,0 l 0,0 z"
       id="path497"
       inkscape:connector-curvature="0" /><path
       style="fill-rule:evenodd;stroke:#000000;stroke-width:0.036;stroke-miterlimit:10"
       d="m 261.164,112.35 c 4.62549,1.11142 4.05757,4.23839 0,0 z"
       id="path499"
       inkscape:connector-curvature="0" /><path
       style="fill-rule:evenodd;stroke:#000000;stroke-width:0.036;stroke-miterlimit:10"
       d="m 257.348,121.026 c 4.5676,1.17924 4.135,4.28904 0,0 z"
       id="path501"
       inkscape:connector-curvature="0" /><path
       style="fill-rule:evenodd;stroke:#000000;stroke-width:0.036;stroke-miterlimit:10"
       d="m 260.3,107.13 c -0.5233,-3.98704 -1.91966,-2.58866 0,0 z"
       id="path503"
       inkscape:connector-curvature="0" /><path
       style="fill-rule:evenodd;stroke:#000000;stroke-width:0.036;stroke-miterlimit:10"
       d="m 257.024,110.442 c -3.20445,-2.40893 -3.16612,-0.35402 0,0 z"
       id="path505"
       inkscape:connector-curvature="0" /></g></svg>