<?xml version="1.0" encoding="UTF-8" standalone="no"?>
<!-- Created with Inkscape (http://www.inkscape.org/) -->

<svg
   xmlns:dc="http://purl.org/dc/elements/1.1/"
   xmlns:cc="http://creativecommons.org/ns#"
   xmlns:rdf="http://www.w3.org/1999/02/22-rdf-syntax-ns#"
   xmlns:svg="http://www.w3.org/2000/svg"
   xmlns="http://www.w3.org/2000/svg"
   xmlns:xlink="http://www.w3.org/1999/xlink"
   xmlns:sodipodi="http://sodipodi.sourceforge.net/DTD/sodipodi-0.dtd"
   xmlns:inkscape="http://www.inkscape.org/namespaces/inkscape"
   width="6"
   height="8"
   id="svg4794"
   version="1.1"
   inkscape:version="0.48.4 r9939"
   sodipodi:docname="flower5.svg"
   inkscape:export-filename="/home/vovka/work/nodejs-projects/game/client/img/flower4.png"
   inkscape:export-xdpi="180"
   inkscape:export-ydpi="180">
  <defs
     id="defs4796" />
  <sodipodi:namedview
     id="base"
     pagecolor="#ffffff"
     bordercolor="#666666"
     borderopacity="1.0"
     inkscape:pageopacity="0.0"
     inkscape:pageshadow="2"
     inkscape:zoom="45.254834"
     inkscape:cx="3.3933501"
     inkscape:cy="1.2142813"
     inkscape:document-units="px"
     inkscape:current-layer="layer1"
     showgrid="true"
     inkscape:snap-object-midpoints="true"
     inkscape:window-width="1631"
     inkscape:window-height="1026"
     inkscape:window-x="49"
     inkscape:window-y="24"
     inkscape:window-maximized="1">
    <inkscape:grid
       type="xygrid"
       id="grid4802"
       empspacing="10"
       visible="true"
       enabled="true"
       snapvisiblegridlinesonly="true"
       spacingx="0.1px"
       spacingy="0.1px" />
  </sodipodi:namedview>
  <metadata
     id="metadata4799">
    <rdf:RDF>
      <cc:Work
         rdf:about="">
        <dc:format>image/svg+xml</dc:format>
        <dc:type
           rdf:resource="http://purl.org/dc/dcmitype/StillImage" />
        <dc:title></dc:title>
      </cc:Work>
    </rdf:RDF>
  </metadata>
  <g
     inkscape:label="Layer 1"
     inkscape:groupmode="layer"
     id="layer1"
     transform="translate(0,-1044.3622)">
    <path
       style="fill:#008000;fill-opacity:1;stroke:none;stroke-width:0.00938337000000000;stroke-linecap:butt;stroke-linejoin:miter;stroke-miterlimit:4;stroke-opacity:1;stroke-dasharray:none"
       d="m 2.8,1052.3622 0,-4.3 0.4095238,0 0,4.3 z"
       id="path4804"
       inkscape:connector-curvature="0" />
    <path
       sodipodi:type="arc"
       style="color:#000000;fill:#ffffff;fill-opacity:1;fill-rule:nonzero;stroke:none;stroke-width:0.01000000000000000;stroke-linecap:butt;stroke-linejoin:miter;stroke-miterlimit:4;stroke-opacity:1;stroke-dasharray:none;stroke-dashoffset:0;marker:none;visibility:visible;display:inline;overflow:visible;enable-background:accumulate"
       id="path5322"
       sodipodi:cx="5"
       sodipodi:cy="3.5"
       sodipodi:rx="2"
       sodipodi:ry="0.5"
       d="M 5.5470732,3.9809308 A 2,0.5 0 1 1 5.5274144,3.0176986"
       transform="translate(-3,1043.5622)"
       sodipodi:start="1.2937284"
       sodipodi:end="4.9792524"
       inkscape:transform-center-x="1.8955525"
       sodipodi:open="true" />
    <use
       x="0"
       y="0"
       xlink:href="#path5322"
       inkscape:transform-center-x="0.77739582"
       id="use5334"
       transform="matrix(0.5,-0.8660254,0.8660254,0.5,-905.28248,526.12919)"
       width="6"
       height="8"
       inkscape:transform-center-y="1.5261919" />
    <use
       x="0"
       y="0"
       xlink:href="#use5334"
       inkscape:transform-center-x="-0.77740281"
       inkscape:transform-center-y="1.5264142"
       id="use5336"
       transform="matrix(0.5,-0.8660254,0.8660254,0.5,-905.28248,526.12919)"
       width="6"
       height="8" />
    <use
       x="0"
       y="0"
       xlink:href="#use5336"
       inkscape:transform-center-x="-1.8955545"
       inkscape:transform-center-y="1.1082674e-05"
       id="use5338"
       transform="matrix(0.5,-0.8660254,0.8660254,0.5,-905.28248,526.12919)"
       width="6"
       height="8" />
    <use
       x="0"
       y="0"
       xlink:href="#use5338"
       inkscape:transform-center-x="-0.77739784"
       inkscape:transform-center-y="-1.5261808"
       id="use5340"
       transform="matrix(0.5,-0.8660254,0.8660254,0.5,-905.28248,526.12919)"
       width="6"
       height="8" />
    <use
       x="0"
       y="0"
       xlink:href="#use5340"
       inkscape:transform-center-x="0.77740077"
       inkscape:transform-center-y="-1.5264031"
       id="use5342"
       transform="matrix(0.5,-0.8660254,0.8660254,0.5,-905.28248,526.12919)"
       width="6"
       height="8" />
    <path
       sodipodi:type="arc"
       style="color:#000000;fill:#ffff36;fill-opacity:1;fill-rule:nonzero;stroke:none;stroke-width:0.01000000000000000;stroke-linecap:butt;stroke-linejoin:miter;stroke-miterlimit:4;stroke-opacity:1;stroke-dasharray:none;stroke-dashoffset:0;marker:none;visibility:visible;display:inline;overflow:visible;enable-background:accumulate"
       id="path5320"
       sodipodi:cx="3.4000001"
       sodipodi:cy="3.45"
       sodipodi:rx="2.4000001"
       sodipodi:ry="2.45"
       d="M 5.8000002,3.45 A 2.4000001,2.45 0 1 1 1,3.45 a 2.4000001,2.45 0 1 1 4.8000002,0 z"
       transform="matrix(0.29166666,0,0,0.29166666,2.0083333,1046.056)" />
    <path
       style="fill:#008000;stroke:none"
       d="M 3,7.5 3.6,7.1 3.8,6 3.9,6.9 4.35,6.55 4.8,5.4 4.6,6.4 5.7,5.8 4.7,6.6 5.7,7 4.5,6.8 4,7.1 4.9,7.7 3.7,7.3 z"
       id="path5641"
       inkscape:connector-curvature="0"
       transform="translate(0,1044.3622)"
       sodipodi:nodetypes="ccccccccccccccc" />
    <path
       style="fill:#008000;stroke:none"
       d="M 3,6.6 2,6.5 1,7 1.7,6.3 1.1,6.1 0.5,6.4 0.9,6 0.3,5.6 1,5.8 1,5 1.2,5.9 1.8,6.1 2.1,5.2 l 0,1 z"
       id="path5643"
       inkscape:connector-curvature="0"
       transform="translate(0,1044.3622)"
       sodipodi:nodetypes="ccccccccccccccc" />
  </g>
</svg>
