<?xml version="1.0" encoding="UTF-8" standalone="no"?>
<!-- Created with Inkscape (http://www.inkscape.org/) -->

<svg
   xmlns:dc="http://purl.org/dc/elements/1.1/"
   xmlns:cc="http://creativecommons.org/ns#"
   xmlns:rdf="http://www.w3.org/1999/02/22-rdf-syntax-ns#"
   xmlns:svg="http://www.w3.org/2000/svg"
   xmlns="http://www.w3.org/2000/svg"
   xmlns:sodipodi="http://sodipodi.sourceforge.net/DTD/sodipodi-0.dtd"
   xmlns:inkscape="http://www.inkscape.org/namespaces/inkscape"
   width="8"
   height="6"
   id="svg4794"
   version="1.1"
   inkscape:version="0.48.4 r9939"
   sodipodi:docname="grass1.svg"
   inkscape:export-filename="/home/vovka/work/nodejs-projects/game/client/img/grass1.png"
   inkscape:export-xdpi="180"
   inkscape:export-ydpi="180">
  <defs
     id="defs4796" />
  <sodipodi:namedview
     id="base"
     pagecolor="#ffffff"
     bordercolor="#666666"
     borderopacity="1.0"
     inkscape:pageopacity="0.0"
     inkscape:pageshadow="2"
     inkscape:zoom="5.6568543"
     inkscape:cx="-4.8614698"
     inkscape:cy="30.372403"
     inkscape:document-units="px"
     inkscape:current-layer="layer1"
     showgrid="true"
     inkscape:snap-object-midpoints="true"
     inkscape:window-width="1631"
     inkscape:window-height="1026"
     inkscape:window-x="49"
     inkscape:window-y="24"
     inkscape:window-maximized="1">
    <inkscape:grid
       type="xygrid"
       id="grid4802"
       empspacing="10"
       visible="true"
       enabled="true"
       snapvisiblegridlinesonly="true"
       spacingx="0.1px"
       spacingy="0.1px" />
  </sodipodi:namedview>
  <metadata
     id="metadata4799">
    <rdf:RDF>
      <cc:Work
         rdf:about="">
        <dc:format>image/svg+xml</dc:format>
        <dc:type
           rdf:resource="http://purl.org/dc/dcmitype/StillImage" />
        <dc:title></dc:title>
      </cc:Work>
    </rdf:RDF>
  </metadata>
  <g
     inkscape:label="Layer 1"
     inkscape:groupmode="layer"
     id="layer1"
     transform="translate(0,-1046.3622)">
    <path
       style="fill:#008000;stroke:none"
       d="M 3.9,8 3.9,7.7 5,7.3 6.7,5.1 8,4.6 7,5.5 5.5,7.5 5,8 z"
       id="path5641"
       inkscape:connector-curvature="0"
       sodipodi:nodetypes="ccccccccc"
       transform="translate(0,1044.3622)" />
    <path
       style="fill:#008000;stroke:none"
       d="M 4,7.7 3.9,8 3.6,8 2.5,4.9 1.1,2.9 3,5 z"
       id="path5643"
       inkscape:connector-curvature="0"
       sodipodi:nodetypes="ccccccc"
       transform="translate(0,1044.3622)" />
    <path
       sodipodi:nodetypes="ccccccccc"
       inkscape:connector-curvature="0"
       id="path5727"
       d="m 3.5,1052.0622 0.1,0.3 -0.6,0 -1.1,-1.6 -0.8,-0.9 -1.1,-0.5 1.2,0.1 1,1 z"
       style="fill:#008000;stroke:none" />
    <path
       sodipodi:nodetypes="ccccccc"
       inkscape:connector-curvature="0"
       id="path5729"
       d="m 4.3,1051.9622 -0.4,0.1 -0.2,-0.3 0.8,-1 1.5,-0.9 -1.1,1.2 z"
       style="fill:#008000;stroke:none" />
    <path
       style="fill:#008000;stroke:none"
       d="m 2.8,1051.9622 0.2,0.4 -0.4,0 -1.5,-0.1 -0.8,-0.3 -0.2,-0.4 0.4,0.3 0.7,0.1 z"
       id="path5731"
       inkscape:connector-curvature="0"
       sodipodi:nodetypes="ccccccccc" />
    <path
       style="fill:#008000;stroke:none"
       d="m 4.2,1051.3622 -0.4,0.4 -0.1,-0.4 0.4,-2.5 1.3,-2.5 -0.8,2.6 z"
       id="path5733"
       inkscape:connector-curvature="0"
       sodipodi:nodetypes="ccccccc" />
  </g>
</svg>
