<?xml version="1.0" encoding="UTF-8" standalone="no"?>
<!-- Created with Inkscape (http://www.inkscape.org/) -->

<svg
   xmlns:dc="http://purl.org/dc/elements/1.1/"
   xmlns:cc="http://creativecommons.org/ns#"
   xmlns:rdf="http://www.w3.org/1999/02/22-rdf-syntax-ns#"
   xmlns:svg="http://www.w3.org/2000/svg"
   xmlns="http://www.w3.org/2000/svg"
   xmlns:xlink="http://www.w3.org/1999/xlink"
   xmlns:sodipodi="http://sodipodi.sourceforge.net/DTD/sodipodi-0.dtd"
   xmlns:inkscape="http://www.inkscape.org/namespaces/inkscape"
   inkscape:version="0.48.4 r9939"
   version="1.1"
   id="svg2"
   height="256"
   width="288.69962"
   sodipodi:docname="oak-proba.svg">
  <sodipodi:namedview
     id="base"
     pagecolor="#ffffff"
     bordercolor="#666666"
     borderopacity="1.0"
     inkscape:pageopacity="0.0"
     inkscape:pageshadow="2"
     inkscape:zoom="1.4142136"
     inkscape:cx="219.59648"
     inkscape:cy="59.111427"
     inkscape:document-units="px"
     inkscape:current-layer="layer1"
     showgrid="false"
     inkscape:window-width="1631"
     inkscape:window-height="1026"
     inkscape:window-x="49"
     inkscape:window-y="24"
     inkscape:window-maximized="1"
     fit-margin-top="0"
     fit-margin-left="0"
     fit-margin-right="0"
     fit-margin-bottom="0" />
  <defs
     id="defs4">
    <linearGradient
       inkscape:collect="always"
       id="linearGradient6396">
      <stop
         style="stop-color:#d3d7cf;stop-opacity:1;"
         offset="0"
         id="stop6398" />
      <stop
         style="stop-color:#d3d7cf;stop-opacity:0;"
         offset="1"
         id="stop6400" />
    </linearGradient>
    <linearGradient
       id="linearGradient4768">
      <stop
         id="stop4770"
         offset="0"
         style="stop-color:#004833;stop-opacity:1" />
      <stop
         id="stop4772"
         offset="1"
         style="stop-color:#ffffff;stop-opacity:0;" />
    </linearGradient>
    <linearGradient
       inkscape:collect="always"
       id="linearGradient4714">
      <stop
         style="stop-color:#8f6b32;stop-opacity:1"
         offset="0"
         id="stop4716" />
      <stop
         style="stop-color:#b3925d;stop-opacity:1"
         offset="1"
         id="stop4718" />
    </linearGradient>
    <linearGradient
       inkscape:collect="always"
       id="linearGradient4706">
      <stop
         style="stop-color:#75511a;stop-opacity:1"
         offset="0"
         id="stop4708" />
      <stop
         style="stop-color:#b3925d;stop-opacity:1"
         offset="1"
         id="stop4710" />
    </linearGradient>
    <inkscape:perspective
       sodipodi:type="inkscape:persp3d"
       inkscape:vp_x="0 : 526.18109 : 1"
       inkscape:vp_y="0 : 1000 : 0"
       inkscape:vp_z="744.09448 : 526.18109 : 1"
       inkscape:persp3d-origin="372.04724 : 350.78739 : 1"
       id="perspective10" />
    <inkscape:perspective
       id="perspective3678"
       inkscape:persp3d-origin="159.972 : 94.783 : 1"
       inkscape:vp_z="319.944 : 142.1745 : 1"
       inkscape:vp_y="0 : 1000 : 0"
       inkscape:vp_x="0 : 142.1745 : 1"
       sodipodi:type="inkscape:persp3d" />
    <linearGradient
       inkscape:collect="always"
       xlink:href="#linearGradient4706"
       id="linearGradient4712"
       x1="47.545238"
       y1="278.43381"
       x2="97.712181"
       y2="251.91731"
       gradientUnits="userSpaceOnUse" />
    <linearGradient
       inkscape:collect="always"
       xlink:href="#linearGradient4714"
       id="linearGradient4720"
       x1="92.277435"
       y1="232.47186"
       x2="128.59251"
       y2="279.39969"
       gradientUnits="userSpaceOnUse" />
    <linearGradient
       inkscape:collect="always"
       xlink:href="#linearGradient4768"
       id="linearGradient4766"
       x1="219.89095"
       y1="434.25586"
       x2="110.14432"
       y2="411.62845"
       gradientUnits="userSpaceOnUse"
       gradientTransform="translate(-72.124893,-194.45437)" />
    <linearGradient
       inkscape:collect="always"
       xlink:href="#linearGradient4768"
       id="linearGradient6389"
       gradientUnits="userSpaceOnUse"
       gradientTransform="matrix(0.90029606,0,0,0.90029606,-68.547625,-44.542685)"
       x1="219.89095"
       y1="434.25586"
       x2="110.14432"
       y2="411.62845" />
    <linearGradient
       inkscape:collect="always"
       xlink:href="#linearGradient4706"
       id="linearGradient6391"
       gradientUnits="userSpaceOnUse"
       x1="47.545238"
       y1="278.43381"
       x2="97.712181"
       y2="251.91731"
       gradientTransform="matrix(0.90029606,0,0,0.90029606,-3.6138669,130.52382)" />
    <linearGradient
       inkscape:collect="always"
       xlink:href="#linearGradient4714"
       id="linearGradient6393"
       gradientUnits="userSpaceOnUse"
       x1="92.277435"
       y1="232.47186"
       x2="128.59251"
       y2="279.39969"
       gradientTransform="matrix(0.90029606,0,0,0.90029606,-3.6138669,130.52382)" />
    <linearGradient
       inkscape:collect="always"
       xlink:href="#linearGradient6396"
       id="linearGradient6402"
       x1="179.75401"
       y1="381.58917"
       x2="434.95203"
       y2="398.36652"
       gradientUnits="userSpaceOnUse"
       gradientTransform="translate(162,-14.5)" />
    <linearGradient
       inkscape:collect="always"
       xlink:href="#linearGradient4714"
       id="linearGradient3657"
       gradientUnits="userSpaceOnUse"
       gradientTransform="matrix(0.90029606,0,0,0.90029606,-3.6138669,130.52382)"
       x1="92.277435"
       y1="232.47186"
       x2="128.59251"
       y2="279.39969" />
    <linearGradient
       inkscape:collect="always"
       xlink:href="#linearGradient4714"
       id="linearGradient3660"
       gradientUnits="userSpaceOnUse"
       gradientTransform="matrix(0.90029606,0,0,0.90029606,-3.6138669,130.52382)"
       x1="92.277435"
       y1="232.47186"
       x2="128.59251"
       y2="279.39969" />
    <linearGradient
       inkscape:collect="always"
       xlink:href="#linearGradient4706"
       id="linearGradient3662"
       gradientUnits="userSpaceOnUse"
       gradientTransform="matrix(0.90029606,0,0,0.90029606,-3.6138669,130.52382)"
       x1="47.545238"
       y1="278.43381"
       x2="97.712181"
       y2="251.91731" />
    <linearGradient
       inkscape:collect="always"
       xlink:href="#linearGradient4706"
       id="linearGradient3665"
       gradientUnits="userSpaceOnUse"
       gradientTransform="matrix(0.90029606,0,0,0.90029606,-3.6138669,130.52382)"
       x1="47.545238"
       y1="278.43381"
       x2="97.712181"
       y2="251.91731" />
    <linearGradient
       inkscape:collect="always"
       xlink:href="#linearGradient4768"
       id="linearGradient3668"
       gradientUnits="userSpaceOnUse"
       gradientTransform="matrix(0.90029606,0,0,0.90029606,-68.547625,-44.542685)"
       x1="219.89095"
       y1="434.25586"
       x2="110.14432"
       y2="411.62845" />
    <linearGradient
       inkscape:collect="always"
       xlink:href="#linearGradient4768"
       id="linearGradient3671"
       gradientUnits="userSpaceOnUse"
       gradientTransform="matrix(0.90029606,0,0,0.90029606,-68.547625,-44.542685)"
       x1="219.89095"
       y1="434.25586"
       x2="110.14432"
       y2="411.62845" />
    <linearGradient
       inkscape:collect="always"
       xlink:href="#linearGradient4714"
       id="linearGradient3721"
       gradientUnits="userSpaceOnUse"
       gradientTransform="matrix(0.90029606,0,0,0.90029606,-3.6138669,130.52382)"
       x1="92.277435"
       y1="232.47186"
       x2="128.59251"
       y2="279.39969" />
    <linearGradient
       inkscape:collect="always"
       xlink:href="#linearGradient4706"
       id="linearGradient3724"
       gradientUnits="userSpaceOnUse"
       gradientTransform="matrix(0.90029606,0,0,0.90029606,-3.6138669,130.52382)"
       x1="47.545238"
       y1="278.43381"
       x2="97.712181"
       y2="251.91731" />
    <linearGradient
       inkscape:collect="always"
       xlink:href="#linearGradient4768"
       id="linearGradient3728"
       gradientUnits="userSpaceOnUse"
       gradientTransform="matrix(0.90029606,0,0,0.90029606,-68.547625,-44.542685)"
       x1="219.89095"
       y1="434.25586"
       x2="110.14432"
       y2="411.62845" />
    <linearGradient
       inkscape:collect="always"
       xlink:href="#linearGradient4714"
       id="linearGradient3778"
       gradientUnits="userSpaceOnUse"
       gradientTransform="matrix(0.90029606,0,0,0.90029606,-3.6138669,130.52382)"
       x1="92.277435"
       y1="232.47186"
       x2="128.59251"
       y2="279.39969" />
    <linearGradient
       inkscape:collect="always"
       xlink:href="#linearGradient4706"
       id="linearGradient3781"
       gradientUnits="userSpaceOnUse"
       gradientTransform="matrix(0.90029606,0,0,0.90029606,-3.6138669,130.52382)"
       x1="47.545238"
       y1="278.43381"
       x2="97.712181"
       y2="251.91731" />
    <linearGradient
       inkscape:collect="always"
       xlink:href="#linearGradient4768"
       id="linearGradient3785"
       gradientUnits="userSpaceOnUse"
       gradientTransform="matrix(0.90029606,0,0,0.90029606,-68.547625,-44.542685)"
       x1="219.89095"
       y1="434.25586"
       x2="110.14432"
       y2="411.62845" />
  </defs>
  <metadata
     id="metadata7">
    <rdf:RDF>
      <cc:Work
         rdf:about="">
        <dc:format>image/svg+xml</dc:format>
        <dc:type
           rdf:resource="http://purl.org/dc/dcmitype/StillImage" />
        <dc:title></dc:title>
      </cc:Work>
    </rdf:RDF>
  </metadata>
  <g
     inkscape:label="Capa 1"
     inkscape:groupmode="layer"
     id="layer1"
     transform="translate(36.245985,-221.58917)">
    <path
       style="fill:url(#linearGradient3785);fill-opacity:1;stroke:none"
       d="m 138.34915,389.79086 c 15.26404,-3.0614 32.2521,4.77291 46.4409,-3.07518 13.59129,-10.91591 12.1245,-31.02954 8.45009,-46.23373 -8.61418,-18.86006 -34.66619,-14.02642 -46.42564,-29.69395 -9.28932,-11.84389 -24.469,-23.85758 -40.304,-17.41196 -20.191185,7.91245 -42.380459,9.85206 -61.863234,19.89526 -7.873761,7.70025 -30.873348,6.24664 -24.845686,21.4486 13.40903,5.76965 17.703655,20.27002 14.01596,33.77398 -4.393667,13.02055 3.228674,26.60565 16.572878,29.63732 15.079049,5.1115 31.422741,2.29834 45.482398,-4.48942 10.662224,-4.84566 22.827894,-6.78262 34.009354,-2.65331 2.85658,0.25523 5.82457,-0.004 8.46698,-1.19761 z"
       id="path4726"
       inkscape:connector-curvature="0" />
    <path
       style="fill:#004833;fill-opacity:1;stroke:none"
       d="m 212.44777,407.35182 c -0.75294,-2.39315 -1.20127,1.19499 0,0 z M 193.70595,387.4182 c -7.44205,-5.26118 -12.88506,-21.46387 -24.27092,-13.10202 -7.64781,-5.81491 -10.29211,15.76325 -4.59359,19.564 1.74953,15.24813 16.13952,-3.6813 24.59921,-0.91227 2.92584,0.16512 6.07344,-2.3999 4.2653,-5.54971 z"
       id="path4722"
       inkscape:connector-curvature="0" />
    <path
       style="fill:url(#linearGradient3781);fill-opacity:1;stroke:none"
       d="m 88.693922,357.324 c -14.886716,2.86162 -31.2206,12.11388 -39.781661,23.61615 -3.3455,8.22903 -13.479073,6.79166 -5.583072,-1.89439 9.422592,-6.77925 16.331795,-25.226 -0.0561,-26.45226 4.31375,17.66033 24.220055,11.6051 33.269478,1.46936 2.909626,-5.68471 19.392932,-3.53953 12.151351,3.26114 z"
       id="path4701"
       inkscape:connector-curvature="0" />
    <path
       style="fill:url(#linearGradient3778);fill-opacity:1;stroke:none"
       d="m 81.91426,325.31384 c -5.947748,16.54401 11.058298,24.94114 18.76607,35.33591 5.21421,3.76319 0.56972,-26.73128 11.09242,-17.12928 -4.34405,11.00949 4.60286,32.70217 -5.39544,37.29182 -12.307689,-10.4494 -16.911932,-27.45572 -29.596324,-37.77079 -4.908756,-3.14835 -20.321979,-3.72244 -7.995177,-8.40788 9.01205,3.1825 11.992636,-3.53941 5.12866,-9.06933 -1.440256,-7.23361 11.000997,-8.5732 7.999791,-0.25045 z"
       id="path4678"
       inkscape:connector-curvature="0" />
    <path
       style="fill:#8f6b32;stroke:none"
       d="m 131.02818,345.86508 c 3.35318,10.32393 -19.08987,33.73669 -3.01128,33.29882 2.1726,-11.30829 9.3519,-25.13469 7.22588,-35.24151 l -1.55119,-0.11748 -1.3901,0.46871"
       id="path4667"
       inkscape:connector-curvature="0" />
    <path
       style="fill:#8f6b32;stroke:none"
       d="m 123.18721,366.96408 c -0.21457,9.14741 -11.34607,11.66657 -15.42926,3.29817 -2.58873,8.43151 1.13772,19.066 0.5894,24.77047 -10.065324,15.05002 -6.0698,35.42706 -2.52977,51.86489 2.50845,9.44809 -5.78028,22.89362 -3.88225,29.08255 8.56703,-1.86211 32.25543,0.83229 22.35976,-12.71557 -3.55299,-18.04425 -6.51181,-38.24728 1.61284,-55.48595 3.8286,-9.221 15.72265,-31.90606 -2.3481,-28.10975 -3.54518,-3.32589 0.0462,-8.59348 -0.37262,-12.70481 z m 8.69348,27.23396 0.19694,-0.0282 -0.19694,0.0282 z m 0.19694,-0.0282 0.21614,0.021 -0.21614,-0.021 z m -5.14857,76.55326 0,-0.22508 0,0.22508 z m 0,-0.22508 c 0.74426,1.04924 0.0494,-0.94831 0,0 z m 2.70089,1.57552 0.19694,-0.028 -0.19694,0.028 z m 0.19694,-0.028 0.22987,0.0604 -0.22987,-0.0604 z m -30.356856,3.62928 -0.43525,0.0254 0.43525,-0.0254 z m -2.560218,-0.45016 c -2.408662,-1.81507 -0.779484,3.03697 0,0 z m -1.491116,0 -0.383657,0.003 0.383657,-0.003 z"
       id="path3893"
       inkscape:connector-curvature="0" />
    <path
       style="fill:#00583f;fill-opacity:1;stroke:none"
       d="m 175.35102,302.96858 c -12.81509,0.54791 -14.26299,20.04862 -28.57435,10.56881 -9.30694,-3.62929 -15.96533,1.4476 -24.64826,-0.58694 -9.063,2.33844 -13.03779,17.25088 -15.7674,18.21651 3.70226,7.88548 9.48561,15.67582 17.15694,14.35462 7.0763,5.72871 24.65492,-0.90173 33.04102,-2.47519 2.17439,-3.85798 19.71173,3.89236 11.32917,8.17421 3.64377,10.64772 18.32264,8.23842 13.88417,20.42017 6.69266,14.46013 -8.31456,20.36657 -15.62321,29.60285 -7.34216,-2.1251 -2.90614,-16.55857 -14.04257,-16.56793 -6.32165,-10.28402 -24.29264,-2.31545 -23.59152,10.59031 -2.23847,19.79182 22.05976,-3.74407 23.27314,10.22581 -9.66211,7.05111 -1.96213,14.48481 7.34935,16.07163 11.93531,8.87349 22.3924,-5.08021 31.98296,-9.26451 6.96315,0.84412 20.67916,3.27087 17.4599,-8.47481 -12.56461,5.11639 -15.44097,-17.31261 0.0314,-11.67199 13.27613,-0.77285 29.1305,-13.74396 21.04272,-27.91274 -4.51475,-15.63898 -24.07908,-16.90414 -33.88287,-5.86917 -6.85495,0.29593 -20.58163,-6.9914 -6.92071,-10.90079 13.148,7.0717 25.22168,-19.62215 7.27898,-18.15725 -4.98392,-6.23833 1.54442,-27.91851 -12.28277,-23.14409 -3.84525,2.03791 -11.80545,4.85565 -8.49613,-3.19951 z"
       id="path3863"
       inkscape:connector-curvature="0" />
    <path
       style="fill:#77b753;fill-opacity:1;stroke:none"
       d="m 95.700044,225.92708 c -8.292701,7.71845 -9.120755,18.95552 -7.131298,27.25325 13.294754,10.45935 -9.939142,-2.73315 -15.876758,-0.68943 -6.099824,10.63752 -8.621783,-9.69371 -19.55903,-5.64834 -14.012631,-0.28945 -26.786915,14.96417 -16.865272,27.64309 5.9107,3.99658 7.585569,13.88508 14.665636,11.81563 5.690909,9.29661 21.699643,15.25396 21.280401,25.00106 -3.958606,9.42534 9.583004,19.32161 14.416354,22.3491 15.224393,-2.0387 18.381563,-12.97687 23.026323,-24.26565 4.55763,-15.85064 20.66982,-12.09215 32.93346,-14.24909 7.34614,-3.30801 19.66346,-2.92488 14.26967,-12.34154 7.06428,-6.03823 23.20835,-7.85017 17.04285,-19.38238 4.78802,-12.01449 -18.174,-20.83623 -25.8788,-12.77375 -15.189,9.51026 -14.35737,-15.74664 -23.65687,-20.41475 -8.75176,10.94771 -19.25394,-1.54737 -28.666666,-4.2972 l 0,0 z m -77.34106,39.41608 c -2.171912,1.3508 3.361343,1.1125 0,0 z"
       id="path3713"
       inkscape:connector-curvature="0" />
    <path
       style="fill:#00892c;fill-opacity:1;stroke:none"
       d="m 185.4941,287.68176 c -13.27319,0.63972 -19.25134,24.95039 -34.22267,10.7894 -11.55297,2.19005 -26.58758,-3.32207 -35.17433,5.83146 -4.82536,10.37837 -15.30945,15.57306 -4.76732,25.7536 7.90563,7.1148 15.24039,8.54512 26.04516,9.77736 11.15964,-2.83857 21.64138,-3.65345 29.93019,-7.35597 5.90796,3.33568 16.74836,5.17152 10.57278,14.10955 4.14246,7.91807 19.98832,7.54681 14.26,17.5212 10.82442,14.2628 -6.56084,24.44206 -12.30219,34.25349 -13.13201,9.55713 -6.45489,-12.13318 -17.13503,-14.0349 -9.72549,-15.74192 -33.90306,-4.33039 -31.22883,12.85836 -0.22663,20.16666 31.97226,-9.92453 25.30353,11.65752 -11.91336,13.60172 12.14983,15.66422 20.88208,19.53892 12.69543,0.6568 19.15084,-19.13499 31.0585,-13.78586 8.97051,9.02984 23.18005,-13.64579 6.01717,-11.23367 -10.80201,-8.20863 3.05932,-16.42413 11.7348,-12.92568 10.68558,-3.69597 25.12319,-10.64597 24.052,-24.05312 -1.12251,-14.61639 -16.9965,-29.10261 -31.65925,-21.80592 -2.06002,12.34501 -28.0086,6.35647 -22.52636,-3.90936 10.57162,1.49047 31.75788,-8.75866 21.04042,-20.94202 -17.26377,2.35286 -5.13489,-18.60884 -14.61907,-26.03606 -3.09123,-13.95837 -19.81058,13.54288 -17.26158,-6.0083 z"
       id="path3749"
       inkscape:connector-curvature="0" />
    <path
       style="fill:#37a42c;fill-opacity:1;stroke:none"
       d="M 0.97201517,290.12944 C -8.5877441,300.20437 -30.06124,304.24693 -27.338284,321.17572 c 11.28546,4.36906 -7.01169,16.88537 2.863667,25.38941 5.458335,16.06111 17.913689,-10.48808 21.3511413,5.25485 4.04437867,14.34317 13.5031687,-4.56145 18.8103587,-5.27864 3.935333,3.61696 3.941396,12.83074 11.788554,6.1943 10.427752,-3.56935 25.060142,0.64608 31.715011,-12.17807 -1.392519,-7.83035 3.015521,-14.53466 11.389237,-12.97678 -4.305487,-11.21599 14.813125,-13.91475 4.719295,-25.10156 -7.393378,-0.33962 -11.348837,-10.75633 -18.575493,-8.01509 -2.786397,7.34787 -14.446411,11.06895 -22.49709,12.15668 -6.283475,-10.12693 -19.473509,-7.96169 -27.5921735,-15.09135 -1.7723227,0.26078 -5.76718384,1.85059 -5.66220833,-1.40003 z m 55.70581983,5.65498 0.0049,0.22109 -0.0049,-0.22109 z m 8.918559,29.51284 c 4.089064,2.84969 -0.760272,1.86479 0,0 z m -4.839093,2.70088 -0.155255,0.21239 0.155255,-0.21239 z"
       id="path3832"
       inkscape:connector-curvature="0" />
    <path
       style="fill:#00892c;fill-opacity:1;stroke:none"
       d="m 38.2499,356.01986 c -1.201012,9.76109 -13.992571,25.94887 -22.313576,12.6173 -6.3241666,7.71732 -13.8192193,12.50335 -23.1623562,14.31877 -8.5661268,10.39326 7.21093697,20.67844 14.803333,18.33104 -0.9959599,7.96842 5.7777822,8.14872 7.5481252,10.18033 0.679897,9.3447 19.607259,3.86842 24.557666,-1.84944 5.21728,-8.06077 13.321361,9.19428 4.204093,12.30825 3.166858,15.03592 23.545151,3.63824 33.432136,5.15006 3.127933,-3.02641 5.687293,-4.4972 8.782001,-7.23815 -3.779352,-4.95606 -14.399916,-14.84087 -0.515162,-13.0686 9.05863,-6.95164 21.51451,-2.0906 26.06081,-16.07888 3.46477,-11.60963 -8.29117,-26.3993 -18.871223,-14.45265 -5.993773,4.88163 -6.922388,-16.36848 -18.208139,-9.5118 -12.52775,1.6368 -20.107564,21.632 -31.218874,18.72498 -6.773977,-8.5198 -3.260987,-18.287 -2.75871,-28.22926 l -0.917935,-0.76665 -1.422189,-0.4353 0,0 z m 42.567124,11.14116 c 0.807204,0.27088 -0.87876,0.40008 0,0 z m 3.151036,4.13574 0.190385,0.053 -0.190385,-0.053 z m 21.26949,5.76752 -0.002,0.5586 0.002,-0.5586 z m -38.34698,35.70236 c 5.256728,0.21243 -1.879401,5.43545 0,0 z"
       id="path3851"
       inkscape:connector-curvature="0" />
    <path
       style="fill:#00583f;fill-opacity:1;stroke:none"
       d="m 19.342896,369.77138 c -3.233198,12.14468 -16.8948935,12.99812 -23.8016451,18.54641 -5.6070269,11.77691 10.2610214,16.37177 16.3929301,17.51938 -2.5920239,7.85398 7.601989,6.74722 6.787734,9.04585 3.605051,8.69442 24.856561,4.67022 26.86178,-6.02121 9.998383,5.13732 5.302496,12.92062 1.98951,19.54485 9.083953,3.63461 22.03811,-4.2366 27.14348,-12.40207 3.520717,1.68976 13.697229,11.54012 11.959075,1.13067 -17.553984,-7.7042 24.35097,-9.33524 5.48551,-17.94926 -7.390685,3.09333 -13.845781,3.34872 -15.152874,-5.36127 -6.785426,-2.79162 -11.329179,19.39225 -18.482056,6.15856 -5.059957,-14.81099 -19.87009,8.44512 -23.188155,-8.79821 -6.033171,-6.38653 8.676795,-24.12678 -4.932394,-14.66277 -6.395763,4.24975 -8.247603,-2.82212 -11.062895,-6.75093 z"
       id="path3715"
       inkscape:connector-curvature="0" />
    <path
       style="fill:#37a42c;fill-opacity:1;stroke:none"
       d="m 119.69248,324.71594 c 13.5888,-3.24571 23.52081,-13.06482 23.2569,-26.49448 3.82008,-10.4544 -10.8012,-11.60694 -13.11827,-11.93488 -2.78898,-11.34842 -14.08563,7.31243 -16.32665,-5.06975 -13.39369,-3.73371 -25.023009,2.16529 -32.262972,12.80153 -15.363945,4.04863 -5.212459,27.39028 8.133796,18.73434 11.653476,-7.98794 16.578846,6.01819 26.500956,9.66731 l 1.78749,1.21316 2.02875,1.08277 0,0 z m -35.29908,-10.09036 0.02229,-0.14341 -0.02229,0.14341 z m -2.343884,-20.0789 c -2.178419,-2.01625 0.648269,-1.24876 0,0 z m 3.435448,-1.1837 0.125548,-0.11729 -0.125548,0.11729 z"
       id="path3875"
       inkscape:connector-curvature="0" />
    <path
       style="fill:#00892c;fill-opacity:1;stroke:none"
       d="m 198.83043,249.30376 c -3.925,0.61214 1.56369,1.70003 0,0 z m -35.07174,19.55676 c -6.75627,11.14087 -28.60928,3.67402 -28.02424,21.56276 -2.92917,9.62004 -7.22814,13.92258 4.28317,20.64656 2.53691,0.0478 10.02522,8.05083 12.13861,1.04221 8.15294,7.86138 27.98174,-1.4984 18.73471,-13.55053 -4.81379,-9.05712 -1.5057,-21.5868 -1.09535,-28.87903 -1.99422,-0.40667 -4.06611,-0.27721 -6.0369,-0.82197 z"
       id="path3813"
       inkscape:connector-curvature="0" />
    <path
       style="fill:#00583f;fill-opacity:1;stroke:none"
       d="m 184.20846,285.77734 c -7.90791,0.46033 -19.12517,8.63141 -7.24567,11.12581 3.30823,9.76335 17.00747,-10.56574 18.33471,5.10097 5.29993,4.85557 3.66725,12.19036 2.42152,19.53633 6.54298,4.04719 15.03785,2.46249 16.09735,13.64702 9.97863,-5.48313 4.97694,-23.25795 -7.43591,-18.93422 -1.25668,-9.80351 1.24012,-34.61586 -14.37851,-26.00504 -5.37674,3.64819 -10.14966,3.26385 -7.79349,-4.47087 z m -39.19101,8.72162 c -7.16058,8.36025 -30.67851,-3.12096 -28.91017,9.90809 12.12966,2.88033 25.94985,-4.11406 36.01792,4.62415 7.79032,0.49642 15.28266,-10.82652 3.05544,-9.51246 -3.24105,-1.93851 -6.49239,-3.99174 -10.16319,-5.01978 z m -34.97087,12.6604 c -2.02161,2.27365 2.37054,0.4268 0,0 z m -5.06417,7.00544 c -4.23189,1.48192 5.9189,-0.03 0,0 z m 117.12289,25.18016 c -12.81701,5.80441 2.29253,12.91202 8.40553,12.70809 6.94461,7.94724 15.49264,19.35694 9.18112,30.11698 12.52012,-6.28991 12.94031,-27.18873 1.05897,-33.96761 -3.92514,-8.76547 -12.5825,-4.57894 -18.64562,-8.85746 z m -29.96298,5.03602 c -18.85099,4.69503 12.98182,20.72 16.95808,7.7868 -1.01855,-6.68245 -13.0031,-3.31856 -16.95808,-7.7868 z m -45.97136,28.78134 c -5.64143,1.71448 -19.48725,13.50646 -6.11921,9.39534 9.10195,-0.61375 10.41018,7.06153 17.61816,9.26694 3.10525,5.32957 7.03802,23.15002 13.30404,10.02423 0.30211,-12.72475 -10.99444,-27.76042 -24.27384,-25.73606 l -0.48455,-0.64939 -0.0446,-2.30106 z m 36.74333,12.68856 c -5.5699,8.24834 9.81777,0.92305 0,0 z m -3.0385,6.499 c -3.36759,1.01475 2.20915,3.54676 4e-5,0 l -4e-5,0 z m 27.54343,3.43238 c -22.25936,10.42134 23.55927,24.56535 12.83404,7.15219 -5.12781,-0.14854 -9.63088,-3.36407 -12.83404,-7.15219 z m -34.46446,3.43238 c -3.88,0.33531 1.92606,1.2236 0,0 z m 17.2463,18.87808 c -5.24684,7.93457 8.69324,0.0987 0,0 z"
       id="path3870"
       inkscape:connector-curvature="0" />
    <path
       style="fill:#77b753;fill-opacity:1;stroke:none"
       d="m 0.29271716,288.4563 c -7.16674126,8.7896 -30.15640616,15.39699 -23.94781916,27.71421 12.879417,0.45763 20.8393846,-16.88216 33.3989431,-10.52844 13.4761159,3.13362 24.8649559,7.82233 36.1382819,13.35566 13.494578,-0.55461 1.859766,-30.38967 -7.017639,-14.88944 -9.684849,1.09649 -14.793098,-12.08084 -24.253775,-9.73529 -4.318282,-3.03458 -9.9474367,-3.03175 -14.31799184,-5.9167 z M -26.097211,316.70308 c -2.780424,1.49371 1.49528,3.48983 0,0 z m 0.02814,17.10562 c -3.059906,0.81939 2.15289,2.57531 0,0 z"
       id="path3877"
       inkscape:connector-curvature="0" />
    <g
       id="g3681"
       transform="matrix(0.90029606,0,0,0.90029606,-36.252287,221.58558)">
      <path
         style="fill-rule:evenodd"
         d="m 137.409,96.821 c 2.07466,7.04853 -16.51261,15.77532 -13.64994,6.78157 4.85584,9.49374 8.3339,-7.028318 13.64994,-6.78157 z"
         id="path3628"
         inkscape:connector-curvature="0" />
      <path
         style="fill-rule:evenodd"
         d="m 139.39,102.768 c 0.2312,7.74453 -13.35525,8.95945 -3.09138,2.80391 0.5463,-0.65187 1.23642,-4.19798 3.09138,-2.80391 z"
         id="path3630"
         inkscape:connector-curvature="0" />
      <path
         style="fill-rule:evenodd"
         d="m 118.911,105.41 c 7.27805,2.87921 -3.35051,8.07981 0,0 z"
         id="path3632"
         inkscape:connector-curvature="0" />
      <path
         style="fill-rule:evenodd"
         d="m 147.318,119.943 c -5.47564,-7.97958 0.34592,-16.05262 0.87216,-3.17709 L 147.318,119.943 z"
         id="path3634"
         inkscape:connector-curvature="0" />
      <path
         style="fill-rule:evenodd"
         d="m 100.415,110.034 c -1.699036,8.54746 13.59151,2.76808 12.75399,14.04168 7.00377,6.6114 13.28887,-0.36265 11.69313,-4.6233 9.82704,11.01147 -10.29809,9.63549 -7.7817,10.96088 10.09369,-2.05275 20.20303,22.12152 7.96318,6.51734 -5.63898,-9.87521 -22.35257,13.07305 -20.9412,3.04098 17.36605,-1.05662 2.75635,-20.66473 0.0861,-21.11091 -1.72548,-1.96449 -9.542281,2.21719 -6.607923,-5.09927 -18.910288,5.11009 -5.687077,-2.50947 2.834423,-3.7274 z"
         id="path3636"
         inkscape:connector-curvature="0" />
      <path
         style="fill-rule:evenodd"
         d="m 136.086,110.034 c 11.91435,-2.55041 4.11785,24.13975 5.03756,5.31556 -1.30781,-2.1709 -5.18463,-2.18004 -5.03756,-5.31556 z"
         id="path3638"
         inkscape:connector-curvature="0" />
      <path
         style="fill-rule:evenodd"
         d="m 129.48,112.677 c 2.78043,14.02275 8.26991,30.13155 19.18966,37.81965 -11.6252,-5.27163 -19.34964,-17.06675 -18.6348,-30.35176 -0.18339,-2.4894 -0.32385,-4.98216 -0.55486,-7.46789 z"
         id="path3640"
         inkscape:connector-curvature="0" />
      <path
         style="fill-rule:evenodd"
         d="m 150.62,119.283 c 7.26633,6.65665 -13.43941,24.41004 -3.45549,8.91408 1.87384,-2.56968 3.94452,-5.53364 3.45549,-8.91408 z"
         id="path3642"
         inkscape:connector-curvature="0" />
      <path
         style="fill-rule:evenodd"
         d="m 215.361,129.853 c -3.43661,15.4946 -14.90664,24.99906 -28.9226,29.58463 1.82907,-4.49233 8.62324,-28.93902 6.25356,-11.82005 12.24108,15.09326 15.8675,-15.6357 22.66904,-17.76458 z"
         id="path3644"
         inkscape:connector-curvature="0" />
      <path
         style="fill-rule:evenodd"
         d="m 217.342,132.495 c -2.16927,8.13757 5.85326,9.38914 2.67436,10.34692 -8.93608,6.34223 -4.91215,-7.03402 -2.67436,-10.34692 z"
         id="path3646"
         inkscape:connector-curvature="0" />
      <path
         style="fill-rule:evenodd"
         d="m 157.888,133.155 c 0.79737,5.59588 -6.92626,28.70447 -5.12478,11.14495 0.81131,-4.05434 2.77971,-7.77914 5.12478,-11.14495 z"
         id="path3648"
         inkscape:connector-curvature="0" />
      <path
         style="fill:#ffffff;fill-rule:evenodd"
         d="m 253.675,134.477 c 11.17429,1.1223 -0.24269,9.02124 0,0 z"
         id="path3650"
         inkscape:connector-curvature="0" />
      <path
         style="fill-rule:evenodd"
         d="m 237.161,142.404 c -23.03307,4.37739 1.46163,23.25399 5.67013,24.74836 -11.42476,2.82031 -29.24517,-24.38932 -9.04869,-24.46137 1.11537,-0.21801 2.24821,-0.22563 3.37856,-0.28699 z"
         id="path3652"
         inkscape:connector-curvature="0" />
      <path
         style="fill-rule:evenodd"
         d="m 140.05,150.992 c 10.73587,4.5423 2.91422,15.59967 0,0 z"
         id="path3654"
         inkscape:connector-curvature="0" />
      <path
         style="fill-rule:evenodd"
         d="m 99.752,151.652 c 8.22159,2.29204 -0.681376,10.38695 0,0 z"
         id="path3656"
         inkscape:connector-curvature="0" />
      <path
         style="fill-rule:evenodd"
         d="m 101.735,157.598 c -2.998613,7.53626 -20.935098,24.34056 -7.94407,8.01983 2.762535,-5.89995 -0.226418,-16.89573 6.31044,-7.48584 0.54454,-0.178 1.08909,-0.35599 1.63363,-0.53399 z"
         id="path3658"
         inkscape:connector-curvature="0" />
      <path
         style="fill-rule:evenodd"
         d="m 228.572,167.509 c -5.05446,-15.7188 -27.45889,-6.16623 -32.07624,-5.45363 10.28245,-10.8191 28.16558,-11.73018 32.07624,5.45363 z"
         id="path3660"
         inkscape:connector-curvature="0" />
      <path
         style="fill-rule:evenodd"
         d="m 112.965,163.543 c -9.0993,1.1842 -26.585378,26.47402 -15.218491,7.05445 3.537561,-4.60835 9.234881,-8.03582 15.218491,-7.05445 z"
         id="path3662"
         inkscape:connector-curvature="0" />
      <path
         style="fill-rule:evenodd"
         d="m 194.881,168.167 c 6.36173,4.5701 28.9206,-0.86271 24.53358,4.32229 -16.42753,1.43403 -27.84181,-4.60141 -36.87497,13.17858 -3.08916,-5.32554 7.57852,-14.45446 12.34139,-17.50087 z"
         id="path3664"
         inkscape:connector-curvature="0" />
      <path
         style="fill-rule:evenodd"
         d="m 175.063,176.756 c 6.38241,5.35088 -7.5044,20.70395 -1.1133,6.52381 l 0.79077,-3.2234 0.32253,-3.30041 z"
         id="path3666"
         inkscape:connector-curvature="0" />
      <path
         style="fill-rule:evenodd"
         d="m 275.475,214.412 c 8.23609,5.02882 16.25067,-16.73159 3.39284,-10.8464 -17.5869,-6.29999 -4.42012,-19.00786 8.17849,-15.39473 11.96448,-3.32797 26.5495,-10.55438 28.5423,-24.25068 -4.43239,-8.76173 -0.23474,-27.23553 -12.83699,-23.10911 -0.0563,-7.65998 4.22888,0.16841 8.6954,-4.09205 5.41963,9.02117 9.49326,24.25023 5.21285,34.98338 -7.23279,12.06942 -19.51853,19.38543 -32.71802,20.18468 -13.05779,-1.0839 -10.00463,9.30038 0.6777,9.56921 12.81283,2.33207 -4.43302,20.77403 -12.94168,17.80178 -7.09254,-3.86267 -14.85263,-3.72029 -18.18003,6.36347 -7.54567,3.47774 -19.59992,3.43391 -20.34108,12.57623 -8.6848,-10.11788 -24.26711,-9.12195 -32.07273,-21.00566 -1.84798,-7.34305 15.29958,-11.10893 2.93025,-15.55449 -7.19441,-0.0712 -13.4795,12.28353 -21.62839,4.56412 -13.01498,10.55214 -3.27208,30.49605 -6.07724,44.938 -1.95218,10.21124 3.58702,20.71763 6.71839,28.66452 -13.6882,-10.23088 -7.9064,-27.95832 -9.37092,-42.40524 -1.53709,-11.93737 0.40617,-36.64402 9.89926,-38.82137 2.88234,17.04805 25.2555,-10.57663 29.01968,5.14176 -6.82139,7.80536 -11.02246,21.16714 4.6746,19.94397 9.34061,10.50181 20.84499,5.95186 29.77586,-0.36184 8.39608,-1.17028 15.12379,-19.05081 25.4728,-5.78756 l 1.36235,-0.91518 1.61431,-2.18681 0,0 z"
         id="path3668"
         inkscape:connector-curvature="0" />
      <path
         style="fill-rule:evenodd"
         d="m 145.335,0.372 c 10.22843,6.1375753 22.1874,14.690282 31.78362,3.9483196 7.76677,6.5635574 8.29252,18.6421834 15.91572,25.5635734 7.35289,-2.374909 17.37122,-15.154364 21.3136,-3.311402 8.90628,-13.695473 10.71322,11.674545 19.48742,4.967432 3.20193,13.718942 3.24581,30.930639 -14.36626,34.512582 -8.08981,1.760961 3.85661,13.311961 -8.95182,14.600343 -18.16134,1.739042 14.80147,13.720033 15.63578,-2.044034 3.08364,-6.400568 0.31982,-12.505026 8.21951,-6.699629 5.26403,-1.074308 14.77325,-1.96952 11.42645,6.507359 8.76256,-9.078945 25.20807,-10.742582 19.88166,5.355739 13.60391,-3.110545 -5.6972,32.901537 13.65479,18.272017 10.08945,7.41861 4.83463,27.32783 -8.23992,30.94017 -4.34534,1.5362 -17.55477,-0.39607 -6.71086,7.63324 11.25514,1.33826 20.04089,-18.87021 29.97741,-7.6855 15.64634,2.99153 -7.31899,2.28828 -12.9431,2.08099 -6.34978,10.64825 -18.79693,11.10531 -28.78691,2.98534 -2.32856,-12.38561 24.18906,-1.32277 27.26096,-16.0339 5.9569,-8.43727 -2.00559,-17.27956 -10.65854,-13.71645 -8.42874,-7.01661 3.72641,-19.146742 -6.4663,-23.92082 1.90018,-20.113167 -21.69184,5.97977 -21.48257,-10.5717 -14.96074,0.188264 -17.60803,25.024406 -33.60784,13.753201 -10.02244,-10.018322 -19.68067,4.9178 -28.51949,-2.579476 -14.04629,-1.772368 -16.59288,16.538305 -23.47423,20.435715 -7.58499,2.92589 5.63089,17.94377 10.08606,19.77777 2.68535,9.06593 7.4398,-4.24711 10.38981,6.21442 4.88023,0.18063 5.34444,-2.73286 8.75223,2.02006 4.78543,-6.25764 22.89797,-3.0852 8.83823,1.78949 -4.90203,-0.46088 -1.5651,-6.76403 -5.9152,1.14499 -2.35277,5.69255 -5.81411,26.12165 -8.49213,22.4204 8.8391,-11.67715 3.31454,-28.72215 -11.11533,-26.91738 -6.74378,6.14437 -3.11298,27.2387 -6.52639,28.42643 -4.8208,-12.04171 10.23476,-31.59659 -4.546,-35.30836 -3.51528,-9.72182 -12.65002,-20.72045 0.48444,-27.693488 5.72668,-16.942686 23.90652,-13.427573 36.53363,-17.074218 8.00542,-2.682322 25.48682,-1.345015 15.8491,-12.527505 8.60001,-6.129307 27.26305,-11.120991 20.2942,-22.49163 4.76685,-14.797325 -20.29908,-17.478565 -26.4688,-17.721211 -4.3766,7.70255 -13.81042,9.020365 -16.06985,3.026858 -4.24247,-7.555561 -5.73011,-16.521652 -12.37944,-22.1175684 -10.94372,13.2630594 -22.10372,-3.3778925 -34.04425,-3.5630075 -3.99822,6.6773819 -11.89934,14.5245409 -5.94467,19.2731329 -9.26084,9.313695 6.41758,14.325285 6.19067,14.60755 -9.30856,4.246045 -21.48406,-15.318989 -28.27216,-0.369731 C 107.41087,27.291478 91.011029,22.265813 80.105413,33.180338 64.897259,39.90369 76.850743,61.746896 84.169916,67.686807 89.24746,75.179223 113.03701,66.015571 102.928,82.011945 97.553626,89.542422 89.915598,86.546295 83.629313,92.678994 72.648642,92.355882 72.763813,80.251536 61.49119,82.792273 50.987727,75.455827 36.417467,72.22489 27.991591,84.455969 c -9.302789,3.451798 -14.951857,8.018099 -17.860067,17.556791 -7.7232068,-3.167612 -0.2947463,4.88361 0.712405,8.12875 8.769472,3.07729 -7.9756151,20.92241 3.174718,28.06435 4.857473,15.66868 22.408626,-11.93229 24.298664,8.37471 6.492152,6.44982 14.598499,-4.11018 17.985889,-10.94212 7.434003,2.22718 2.018691,19.09228 12.325568,8.82827 8.644457,-6.30056 19.656332,3.71809 9.130539,10.80293 -2.482968,10.49577 -17.212794,18.47564 -22.330527,5.08003 -5.923203,8.65856 -12.348785,16.15277 -22.964937,14.80829 -11.976389,11.07667 2.228907,27.36433 13.575105,21.61674 3.55588,3.93308 -1.55223,14.10191 9.54709,11.108 -4.431982,10.47681 5.398746,-0.0588 3.7203,7.83269 9.674216,0.31935 23.584928,-4.53279 25.976098,-11.93934 7.989633,6.98017 8.355311,9.55084 1.577065,18.37462 0.972988,10.85625 16.148229,4.261 24.456109,6.47029 5.08703,-6.72303 3.36258,-2.9767 10.59455,-0.81911 4.66013,-4.70924 2.25644,-8.53605 10.79455,-6.56647 11.64263,-6.40913 -18.66243,-12.58828 -2.22953,-16.95323 9.89693,-4.15902 23.45469,-5.30189 31.49183,-16.64965 2.80789,-6.09108 -1.37667,-13.91723 -3.15844,-17.68304 -5.83476,5.32436 0.9534,-9.24291 -7.44769,-3.21598 -7.38714,5.71212 -18.06834,13.29666 -17.07106,-1.9887 0.57586,-8.64167 -16.09485,-5.05438 -13.57212,-4.44642 9.38149,-14.50863 16.0629,1.5143 20.29772,9.46203 10.1369,-12.7691 27.79755,-2.98696 25.84535,12.14574 -3.16541,12.79481 -16.93207,19.79083 -11.37679,34.58959 -0.47677,15.9331 -1.99058,32.35267 3.56859,47.61587 3.0878,7.44069 -16.33163,27.3084 -6.42881,11.79162 7.69823,-19.19065 -6.34837,-39.29025 1.33321,-58.53358 2.83115,-17.0829 -16.26304,-15.27019 -23.63286,-8.96501 17.02542,9.86615 -0.77654,17.10486 -9.57632,22.20644 -8.84464,-2.5887 -29.333909,8.88499 -36.95556,-3.44102 -4.360211,-8.42668 15.113643,-19.63023 -0.37005,-13.65877 -12.233865,4.21532 -32.132525,11.52284 -33.183175,-3.05124 -6.601832,1.93479 -5.585231,-12.28791 -14.848256,-10.24489 -14.549048,1.41812 -14.929952,-25.95371 -2.284961,-30.0299 10.904661,2.36039 15.043654,-6.42249 20.972659,-12.57319 8.353261,10.16879 25.643229,4.02334 21.498927,-9.78391 -7.184058,0.69701 -16.78941,8.80958 -20.06192,-4.36301 0.141633,-0.15106 -8.845937,15.15042 -17.579334,8.49639 -6.601294,-5.69848 -10.40831,-10.40068 -19.500188,-4.3936 -9.7389128,0.066 -7.843761,-14.12376 -16.0418367,-18.3418 6.1356175,-6.72186 10.6294197,-20.3231 -2.43038307,-23.46925 C 1.3820026,98.872009 11.611439,97.485617 9.1916251,90.465625 19.466196,84.927551 31.854873,79.20673 37.398028,70.307627 52.970337,74.05371 70.428776,77.383384 81.923567,87.998101 89.201683,89.495684 90.234965,81.014252 98.180875,81.573274 98.588894,69.990323 76.061794,77.200327 73.676016,63.29486 66.926266,51.201499 64.676536,32.971544 81.104457,29.202013 88.681855,18.69065 112.6872,20.553721 114.16545,34.375402 122.42861,30.233661 135.17866,25.634126 127.98822,17.03386 135.12181,10.514796 136.43084,0.94901437 145.335,0.372 z M 258.96,138.44 c -3.74883,-9.05347 -9.29707,2.28085 0,0 z"
         id="path3670"
         inkscape:connector-curvature="0" />
    </g>
    <path
       style="fill:#75511a;fill-opacity:1;stroke:none"
       d="m 134.1566,361.14362 c 10.17237,2.24492 24.69891,-15.32783 24.09013,-13.86709 0.87186,7.92079 18.93616,-5.65269 9.69536,6.69878 -4.61831,9.38913 16.37349,18.55283 11.48069,23.08135 -5.59512,-4.6934 -27.91253,7.51559 -14.25219,-1.05617 9.84688,-14.16364 -14.95307,-23.00663 -21.6952,-9.32351 -4.60528,8.97932 -21.769,22.33261 -15.18432,3.36333 1.50343,-3.22866 3.44841,-6.27304 5.86553,-8.89669 z"
       id="path4673"
       inkscape:connector-curvature="0" />
    <path
       style="fill:none;stroke:#77b753;stroke-width:2.70088816;stroke-miterlimit:4;stroke-opacity:1;stroke-dasharray:none"
       d="m 92.94331,301.85424 c -7.358932,2.74256 -0.490346,-11.59253 -7.734976,-10.40338"
       id="path5410"
       inkscape:connector-curvature="0" />
    <path
       style="fill:none;stroke:#ffffff;stroke-width:2.70088816;stroke-miterlimit:4;stroke-opacity:1;stroke-dasharray:none"
       d="m 117.92107,244.57182 c -8.68698,-10.09315 -7.72761,11.81297 -18.431533,7.18356 l -1.635971,1.29472"
       id="path5406"
       inkscape:connector-curvature="0" />
    <path
       style="fill:none;stroke:#ffffff;stroke-width:1.80059218;stroke-miterlimit:4;stroke-opacity:1;stroke-dasharray:none"
       d="m 142.63622,307.82326 c -6.9928,7.30073 -3.62785,-6.3136 -9.62394,-4.55167 -3.78298,-5.06331 -5.73305,-0.0586 -10.00985,-0.77965 -1.30636,1.14702 -2.32198,3.05873 -4.20081,3.4439"
       id="path5385"
       inkscape:connector-curvature="0" />
    <path
       style="fill:none;stroke:#ffffff;stroke-width:2.70088816;stroke-miterlimit:4;stroke-opacity:1;stroke-dasharray:none"
       d="m 9.6981412,303.13952 c -8.6870228,-10.09318 -7.7276397,11.81296 -18.4315707,7.18354 l -1.6359715,1.29472"
       id="path5424"
       inkscape:connector-curvature="0" />
    <path
       style="fill:none;stroke:#004833;stroke-width:2.70088816;stroke-miterlimit:4;stroke-opacity:1;stroke-dasharray:none"
       d="m 13.125119,401.80936 c 6.992799,-7.30069 3.627861,6.3136 9.623949,4.55169 3.782977,5.0633 5.733056,0.0586 10.009839,0.77965 1.306358,-1.14702 2.321973,-3.05874 4.200811,-3.4439"
       id="path5426"
       inkscape:connector-curvature="0" />
    <path
       style="fill:none;stroke:#57401e;stroke-width:0.90029609px;stroke-linecap:butt;stroke-linejoin:miter;stroke-opacity:1"
       d="m 121.79741,403.79618 c -11.8488,17.05196 -6.75531,39.10675 -2.01913,57.69828 0.90045,2.70022 1.97407,5.34725 3.29237,7.87212"
       id="path5428"
       inkscape:connector-curvature="0" />
    <path
       style="fill:none;stroke:#b3925d;stroke-width:0.90029609px;stroke-linecap:butt;stroke-linejoin:miter;stroke-opacity:1"
       d="m 107.5727,475.43822 c 6.43272,-20.11845 -4.68028,-40.55435 -0.90025,-60.76998"
       id="path5436"
       inkscape:connector-curvature="0" />
    <path
       style="fill:none;stroke:#b3925d;stroke-width:0.90029609px;stroke-linecap:butt;stroke-linejoin:miter;stroke-opacity:1"
       d="m 111.62403,407.24078 c -1.26464,-8.676 5.43184,-15.86992 5.85192,-24.30798"
       id="path5438"
       inkscape:connector-curvature="0" />
    <path
       style="fill:none;stroke:#75511a;stroke-width:0.90029609px;stroke-linecap:butt;stroke-linejoin:miter;stroke-opacity:1"
       d="m 122.87773,374.37998 c 1.27668,11.5432 0.1997,24.04379 -6.75223,33.7611"
       id="path5440"
       inkscape:connector-curvature="0" />
    <path
       style="fill:none;stroke:#75511a;stroke-width:0.90029609px;stroke-linecap:butt;stroke-linejoin:miter;stroke-opacity:1"
       d="m 114.77507,403.6396 c -9.32949,21.4073 -4.55585,45.16435 -1.51643,67.37047 l -0.23892,2.07779 -1.17062,1.9002"
       id="path5434"
       inkscape:connector-curvature="0" />
    <path
       style="fill:none;stroke:#b3925d;stroke-width:0.90029609px;stroke-linecap:butt;stroke-linejoin:miter;stroke-opacity:1"
       d="m 58.281487,365.6021 c 8.923373,-0.89918 17.425451,-5.53646 22.957551,-12.60414"
       id="path5456"
       inkscape:connector-curvature="0" />
    <path
       style="fill:none;stroke:#57401e;stroke-width:0.90029609px;stroke-linecap:butt;stroke-linejoin:miter;stroke-opacity:1"
       d="m 132.3014,379.28688 c 4.88408,-12.85307 18.59929,-18.22164 29.28385,-25.14588"
       id="path5458"
       inkscape:connector-curvature="0" />
  </g>
</svg>
